<svg width="798" height="354" viewBox="0 0 798 354" fill="none" xmlns="http://www.w3.org/2000/svg">
<g filter="url(#filter0_d_153_2)">
<path d="M127.483 175.073C118.46 165.763 124.143 150.15 137.039 148.818L269.435 135.145C280.839 133.967 289.544 145.129 285.623 155.903L245.859 265.154C241.938 275.927 228.094 278.883 220.115 270.65L127.483 175.073Z" fill="#FC54FF"/>
</g>
<g filter="url(#filter1_d_153_2)">
<path d="M105.963 199.79C87.9598 188.236 92.8432 160.541 114.09 153.699L241.758 112.584C260.214 106.641 277.668 121.331 274.371 140.032L254.88 250.569C251.583 269.27 229.779 279.248 214.141 269.212L105.963 199.79Z" fill="#FFE661"/>
</g>
<g filter="url(#filter2_d_153_2)">
<path d="M91.8293 208.167C74.2594 199.242 74.2593 173.908 91.8293 163.045L215.551 86.5574C232.778 75.9074 254.059 87.202 254.059 106.995L254.059 246.328C254.059 266.121 232.778 279.762 215.551 271.012L91.8293 208.167Z" fill="#61FFEC"/>
</g>
<g filter="url(#filter3_d_153_2)">
<path d="M65.4783 216.953C47.6507 209.818 43.5279 186.436 57.8399 173.634L180.654 63.7753C195.776 50.2482 219.875 58.59 223.398 78.5713L253.565 249.658C257.089 269.64 237.296 285.721 218.459 278.181L65.4783 216.953Z" fill="#5973FF"/>
</g>
<g filter="url(#filter4_d_153_2)">
<path d="M133.24 219.072C126.499 219.072 120.355 218.261 114.808 216.64C109.261 215.104 105.037 213.141 102.136 210.752C101.368 206.997 100.813 203.371 100.472 199.872C100.131 196.288 99.96 192.832 99.96 189.504C99.96 181.909 100.728 174.784 102.264 168.128C103.8 161.387 105.848 155.285 108.408 149.824C111.053 144.277 113.955 139.541 117.112 135.616C120.269 131.605 123.427 128.533 126.584 126.4L151.288 142.016C143.437 147.051 136.611 153.067 130.808 160.064C125.091 166.976 120.653 174.357 117.496 182.208C114.424 190.059 112.888 197.909 112.888 205.76C114.851 206.101 116.856 206.357 118.904 206.528C120.952 206.613 123.043 206.656 125.176 206.656C129.357 206.656 133.581 206.315 137.848 205.632C142.115 204.864 146.467 203.669 150.904 202.048L155.256 215.872C151.587 216.981 147.875 217.792 144.12 218.304C140.365 218.816 136.739 219.072 133.24 219.072Z" fill="#FCFBFB"/>
</g>
<g filter="url(#filter5_d_153_2)">
<path d="M194.428 215.706L181.627 142.817L163.931 146.164L162.017 133.097L227.02 125.611L227.385 134.188L209.689 137.535L208.343 213.204L194.428 215.706Z" fill="#FFF700"/>
</g>
<g filter="url(#filter6_d_153_2)">
<path d="M340.55 255.24C333.44 255.24 326.96 254.385 321.11 252.675C315.26 251.055 310.805 248.985 307.745 246.465C306.935 242.505 306.35 238.68 305.99 234.99C305.63 231.21 305.45 227.565 305.45 224.055C305.45 216.045 306.26 208.53 307.88 201.51C309.5 194.4 311.66 187.965 314.36 182.205C317.15 176.355 320.21 171.36 323.54 167.22C326.87 162.99 330.2 159.75 333.53 157.5L359.585 173.97C351.305 179.28 344.105 185.625 337.985 193.005C331.955 200.295 327.275 208.08 323.945 216.36C320.705 224.64 319.085 232.92 319.085 241.2C321.155 241.56 323.27 241.83 325.43 242.01C327.59 242.1 329.795 242.145 332.045 242.145C336.455 242.145 340.91 241.785 345.41 241.065C349.91 240.255 354.5 238.995 359.18 237.285L363.77 251.865C359.9 253.035 355.985 253.89 352.025 254.43C348.065 254.97 344.24 255.24 340.55 255.24ZM399.674 255.24C393.284 255.24 387.839 254.475 383.339 252.945C378.929 251.505 375.329 249.66 372.539 247.41C371.819 243.81 371.279 240.345 370.919 237.015C370.649 233.595 370.514 230.31 370.514 227.16C370.514 220.86 371.414 215.01 373.214 209.61C375.104 204.21 377.399 199.44 380.099 195.3C382.889 191.07 385.724 187.605 388.604 184.905C391.484 182.115 393.914 180.225 395.894 179.235C399.944 181.305 403.949 183.825 407.909 186.795C411.869 189.765 415.469 193.23 418.709 197.19C422.039 201.15 424.694 205.605 426.674 210.555C428.654 215.505 429.644 221.04 429.644 227.16C429.644 233.37 428.789 238.545 427.079 242.685C425.369 246.825 422.354 249.93 418.034 252C413.714 254.16 407.594 255.24 399.674 255.24ZM392.384 243.495C395.804 243.495 399.224 243.27 402.644 242.82C406.154 242.28 409.214 241.56 411.824 240.66C412.544 237.78 413.084 234.9 413.444 232.02C413.804 229.14 413.984 226.305 413.984 223.515C413.984 214.965 412.184 207.135 408.584 200.025C403.544 202.635 399.089 206.28 395.219 210.96C391.349 215.55 388.289 220.635 386.039 226.215C383.879 231.705 382.799 237.195 382.799 242.685C385.679 243.225 388.874 243.495 392.384 243.495ZM481.765 255.24C477.625 255.24 472.99 254.7 467.86 253.62C462.73 252.63 457.51 250.83 452.2 248.22L445.855 159.795L474.745 155.34L469.885 209.475H471.1C474.61 201.015 478.795 194.22 483.655 189.09C488.515 183.96 493.69 181.395 499.18 181.395C500.8 181.395 502.42 181.665 504.04 182.205C506.2 184.815 508.09 188.325 509.71 192.735C511.42 197.145 512.725 202.05 513.625 207.45C514.525 212.85 514.975 218.385 514.975 224.055C514.975 230.895 514.03 236.655 512.14 241.335C510.34 245.925 507.01 249.39 502.15 251.73C497.38 254.07 490.585 255.24 481.765 255.24ZM474.34 246.6C477.4 246.6 480.145 246.51 482.575 246.33C485.005 246.06 487.525 245.61 490.135 244.98C490.585 242.55 491.035 239.625 491.485 236.205C491.935 232.785 492.16 228.33 492.16 222.84C492.16 219.78 492.025 216.54 491.755 213.12C491.485 209.7 491.125 206.55 490.675 203.67C490.315 200.79 489.91 198.72 489.46 197.46C487.84 198.09 485.995 199.215 483.925 200.835C481.855 202.365 479.74 204.84 477.58 208.26C475.42 211.68 473.35 216.45 471.37 222.57C469.48 228.69 467.905 236.565 466.645 246.195C469.075 246.465 471.64 246.6 474.34 246.6ZM548.731 175.86C545.311 175.86 542.341 174.645 539.821 172.215C537.391 169.695 536.176 166.725 536.176 163.305C536.176 159.885 537.391 156.96 539.821 154.53C542.341 152.01 545.311 150.75 548.731 150.75C552.151 150.75 555.076 152.01 557.506 154.53C560.026 156.96 561.286 159.885 561.286 163.305C561.286 166.725 560.026 169.695 557.506 172.215C555.076 174.645 552.151 175.86 548.731 175.86ZM542.521 254.025L535.636 187.2L564.526 182.745L555.886 252.81L542.521 254.025Z" fill="#FCFBFB"/>
</g>
<g filter="url(#filter7_d_153_2)">
<path d="M597.601 257.132L584.099 180.257L565.436 183.787L563.417 170.005L631.975 162.11L632.36 171.156L613.697 174.686L612.277 254.493L597.601 257.132ZM673.529 251.845C666.536 252.457 660.294 252.37 654.805 251.586C649.316 250.801 644.656 249.176 640.827 246.71C639.706 243.195 638.841 240.018 638.232 237.18C637.704 234.245 637.326 231.478 637.099 228.878C636.4 220.898 636.972 213.485 638.812 206.639C640.742 199.784 643.427 193.813 646.866 188.723C650.298 183.545 653.974 179.609 657.894 176.917C661.696 178.03 665.569 179.453 669.515 181.186C673.543 182.821 677.289 184.842 680.752 187.25C684.215 189.657 687.081 192.478 689.352 195.712C691.615 198.857 692.922 202.447 693.275 206.481C693.644 210.695 693.192 214.303 691.919 217.306C690.727 220.21 688.267 222.549 684.537 224.321C680.807 226.092 675.311 227.296 668.049 227.931C665.001 228.198 662.03 228.322 659.138 228.305C656.335 228.279 653.882 228.132 651.781 227.864C650.446 232.227 649.979 236.695 650.379 241.267C652.465 241.356 654.726 241.384 657.162 241.351C659.591 241.229 661.926 241.07 664.167 240.874C668.381 240.505 672.657 239.815 676.995 238.803C681.416 237.694 685.797 236.136 690.138 234.13L695.314 246.822C691.83 248.301 688.224 249.43 684.498 250.208C680.772 250.985 677.115 251.531 673.529 251.845ZM659.578 220.948C662.985 220.65 666.376 220.173 669.752 219.516C673.217 218.851 676.226 218.136 678.779 217.371C678.891 215.554 678.877 213.839 678.736 212.225C678.453 208.998 677.754 206.168 676.638 203.736C675.603 201.206 674.372 199.01 672.945 197.148C668.214 200.904 664.351 204.766 661.355 208.732C658.449 212.69 655.97 216.882 653.918 221.308C654.822 221.319 655.768 221.282 656.754 221.195C657.74 221.109 658.681 221.027 659.578 220.948ZM720.652 246.502L705.58 153.231L733.972 146.275L733.945 204.82L759.625 168.424L769.248 174.629L750.308 198.239L783.304 239.259L757.905 243.243L738.341 213.244L733.899 218.24L733.86 244.127L720.652 246.502Z" fill="#FFF700"/>
</g>
<defs>
<filter id="filter0_d_153_2" x="113.085" y="135.059" width="183.493" height="160.318" filterUnits="userSpaceOnUse" color-interpolation-filters="sRGB">
<feFlood flood-opacity="0" result="BackgroundImageFix"/>
<feColorMatrix in="SourceAlpha" type="matrix" values="0 0 0 0 0 0 0 0 0 0 0 0 0 0 0 0 0 0 127 0" result="hardAlpha"/>
<feOffset dy="10"/>
<feGaussianBlur stdDeviation="5"/>
<feComposite in2="hardAlpha" operator="out"/>
<feColorMatrix type="matrix" values="0 0 0 0 0 0 0 0 0 0 0 0 0 0 0 0 0 0 0.25 0"/>
<feBlend mode="normal" in2="BackgroundImageFix" result="effect1_dropShadow_153_2"/>
<feBlend mode="normal" in="SourceGraphic" in2="effect1_dropShadow_153_2" result="shape"/>
</filter>
<filter id="filter1_d_153_2" x="84.9071" y="111.246" width="199.867" height="181.941" filterUnits="userSpaceOnUse" color-interpolation-filters="sRGB">
<feFlood flood-opacity="0" result="BackgroundImageFix"/>
<feColorMatrix in="SourceAlpha" type="matrix" values="0 0 0 0 0 0 0 0 0 0 0 0 0 0 0 0 0 0 127 0" result="hardAlpha"/>
<feOffset dy="10"/>
<feGaussianBlur stdDeviation="5"/>
<feComposite in2="hardAlpha" operator="out"/>
<feColorMatrix type="matrix" values="0 0 0 0 0 0 0 0 0 0 0 0 0 0 0 0 0 0 0.25 0"/>
<feBlend mode="normal" in2="BackgroundImageFix" result="effect1_dropShadow_153_2"/>
<feBlend mode="normal" in="SourceGraphic" in2="effect1_dropShadow_153_2" result="shape"/>
</filter>
<filter id="filter2_d_153_2" x="68.6518" y="82.4635" width="195.407" height="211.249" filterUnits="userSpaceOnUse" color-interpolation-filters="sRGB">
<feFlood flood-opacity="0" result="BackgroundImageFix"/>
<feColorMatrix in="SourceAlpha" type="matrix" values="0 0 0 0 0 0 0 0 0 0 0 0 0 0 0 0 0 0 127 0" result="hardAlpha"/>
<feOffset dy="10"/>
<feGaussianBlur stdDeviation="5"/>
<feComposite in2="hardAlpha" operator="out"/>
<feColorMatrix type="matrix" values="0 0 0 0 0 0 0 0 0 0 0 0 0 0 0 0 0 0 0.25 0"/>
<feBlend mode="normal" in2="BackgroundImageFix" result="effect1_dropShadow_153_2"/>
<feBlend mode="normal" in="SourceGraphic" in2="effect1_dropShadow_153_2" result="shape"/>
</filter>
<filter id="filter3_d_153_2" x="39.2068" y="57.1586" width="224.769" height="242.917" filterUnits="userSpaceOnUse" color-interpolation-filters="sRGB">
<feFlood flood-opacity="0" result="BackgroundImageFix"/>
<feColorMatrix in="SourceAlpha" type="matrix" values="0 0 0 0 0 0 0 0 0 0 0 0 0 0 0 0 0 0 127 0" result="hardAlpha"/>
<feOffset dy="10"/>
<feGaussianBlur stdDeviation="5"/>
<feComposite in2="hardAlpha" operator="out"/>
<feColorMatrix type="matrix" values="0 0 0 0 0 0 0 0 0 0 0 0 0 0 0 0 0 0 0.25 0"/>
<feBlend mode="normal" in2="BackgroundImageFix" result="effect1_dropShadow_153_2"/>
<feBlend mode="normal" in="SourceGraphic" in2="effect1_dropShadow_153_2" result="shape"/>
</filter>
<filter id="filter4_d_153_2" x="89.96" y="126.4" width="75.296" height="112.672" filterUnits="userSpaceOnUse" color-interpolation-filters="sRGB">
<feFlood flood-opacity="0" result="BackgroundImageFix"/>
<feColorMatrix in="SourceAlpha" type="matrix" values="0 0 0 0 0 0 0 0 0 0 0 0 0 0 0 0 0 0 127 0" result="hardAlpha"/>
<feOffset dy="10"/>
<feGaussianBlur stdDeviation="5"/>
<feComposite in2="hardAlpha" operator="out"/>
<feColorMatrix type="matrix" values="0 0 0 0 0 0 0 0 0 0 0 0 0 0 0 0 0 0 0.25 0"/>
<feBlend mode="normal" in2="BackgroundImageFix" result="effect1_dropShadow_153_2"/>
<feBlend mode="normal" in="SourceGraphic" in2="effect1_dropShadow_153_2" result="shape"/>
</filter>
<filter id="filter5_d_153_2" x="151.861" y="125.611" width="92.734" height="112.282" filterUnits="userSpaceOnUse" color-interpolation-filters="sRGB">
<feFlood flood-opacity="0" result="BackgroundImageFix"/>
<feColorMatrix in="SourceAlpha" type="matrix" values="0 0 0 0 0 0 0 0 0 0 0 0 0 0 0 0 0 0 127 0" result="hardAlpha"/>
<feOffset dy="10"/>
<feGaussianBlur stdDeviation="5"/>
<feComposite in2="hardAlpha" operator="out"/>
<feColorMatrix type="matrix" values="0 0 0 0 0 0 0 0 0 0 0 0 0 0 0 0 0 0 0.25 0"/>
<feBlend mode="normal" in2="BackgroundImageFix" result="effect1_dropShadow_153_2"/>
<feBlend mode="normal" in="SourceGraphic" in2="effect1_dropShadow_153_2" result="shape"/>
</filter>
<filter id="filter6_d_153_2" x="295.45" y="150.75" width="279.076" height="124.49" filterUnits="userSpaceOnUse" color-interpolation-filters="sRGB">
<feFlood flood-opacity="0" result="BackgroundImageFix"/>
<feColorMatrix in="SourceAlpha" type="matrix" values="0 0 0 0 0 0 0 0 0 0 0 0 0 0 0 0 0 0 127 0" result="hardAlpha"/>
<feOffset dy="10"/>
<feGaussianBlur stdDeviation="5"/>
<feComposite in2="hardAlpha" operator="out"/>
<feColorMatrix type="matrix" values="0 0 0 0 0 0 0 0 0 0 0 0 0 0 0 0 0 0 0.25 0"/>
<feBlend mode="normal" in2="BackgroundImageFix" result="effect1_dropShadow_153_2"/>
<feBlend mode="normal" in="SourceGraphic" in2="effect1_dropShadow_153_2" result="shape"/>
</filter>
<filter id="filter7_d_153_2" x="552.652" y="142.698" width="240.91" height="138.085" filterUnits="userSpaceOnUse" color-interpolation-filters="sRGB">
<feFlood flood-opacity="0" result="BackgroundImageFix"/>
<feColorMatrix in="SourceAlpha" type="matrix" values="0 0 0 0 0 0 0 0 0 0 0 0 0 0 0 0 0 0 127 0" result="hardAlpha"/>
<feOffset dy="10"/>
<feGaussianBlur stdDeviation="5"/>
<feComposite in2="hardAlpha" operator="out"/>
<feColorMatrix type="matrix" values="0 0 0 0 0 0 0 0 0 0 0 0 0 0 0 0 0 0 0.25 0"/>
<feBlend mode="normal" in2="BackgroundImageFix" result="effect1_dropShadow_153_2"/>
<feBlend mode="normal" in="SourceGraphic" in2="effect1_dropShadow_153_2" result="shape"/>
</filter>
</defs>
</svg>
