<svg width="352" height="354" viewBox="0 0 352 354" fill="none" xmlns="http://www.w3.org/2000/svg">
<g filter="url(#filter0_d_10_272)">
<path d="M127.483 175.073C118.46 165.763 124.143 150.15 137.039 148.818L269.435 135.145C280.839 133.967 289.544 145.129 285.623 155.903L245.859 265.154C241.938 275.927 228.094 278.883 220.115 270.65L127.483 175.073Z" fill="#FC54FF"/>
</g>
<g filter="url(#filter1_d_10_272)">
<path d="M105.963 199.79C87.9598 188.236 92.8432 160.541 114.09 153.699L241.758 112.584C260.214 106.641 277.668 121.331 274.371 140.032L254.88 250.569C251.583 269.27 229.779 279.248 214.141 269.212L105.963 199.79Z" fill="#FFE661"/>
</g>
<g filter="url(#filter2_d_10_272)">
<path d="M91.8293 208.167C74.2594 199.242 74.2593 173.908 91.8293 163.045L215.551 86.5574C232.778 75.9074 254.059 87.202 254.059 106.995L254.059 246.328C254.059 266.121 232.778 279.762 215.551 271.012L91.8293 208.167Z" fill="#61FFEC"/>
</g>
<g filter="url(#filter3_d_10_272)">
<path d="M65.4783 216.953C47.6507 209.818 43.5279 186.436 57.8399 173.634L180.654 63.7753C195.776 50.2482 219.875 58.59 223.398 78.5713L253.565 249.658C257.089 269.64 237.296 285.721 218.459 278.181L65.4783 216.953Z" fill="#5973FF"/>
</g>
<g filter="url(#filter4_d_10_272)">
<path d="M105.966 187.321C110.676 187.321 115.185 186.513 119.492 184.898L121.779 192.166C118.146 193.287 114.445 193.848 110.676 193.848C106.908 193.848 103.543 193.444 100.582 192.637C97.6662 191.829 95.4231 190.775 93.8529 189.474C93.0903 185.706 92.7089 181.982 92.7089 178.303C92.7089 170.811 94.1221 164.015 96.9484 157.914C99.7747 151.812 103.027 147.551 106.706 145.128L119.693 153.338C113.502 157.286 108.59 162.31 104.956 168.411C101.322 174.513 99.5055 180.659 99.5055 186.85C101.435 187.164 103.588 187.321 105.966 187.321ZM154.615 179.851C154.615 184.741 153.539 188.308 151.385 190.551C149.277 192.749 145.351 193.848 139.609 193.848C133.867 193.848 129.38 192.547 126.15 189.945C125.477 186.715 125.141 183.485 125.141 180.255C125.141 177.025 125.59 173.997 126.487 171.17C127.429 168.299 128.595 165.854 129.986 163.835C132.902 159.708 135.504 157.084 137.792 155.962C142.099 158.16 145.89 161.144 149.165 164.912C152.798 169.039 154.615 174.019 154.615 179.851ZM146.809 178.034C146.809 173.772 145.912 169.869 144.118 166.325C140.394 168.299 137.321 171.305 134.898 175.343C132.476 179.38 131.265 183.463 131.265 187.59C132.7 187.859 134.764 187.994 137.456 187.994C140.147 187.994 142.906 187.523 145.733 186.58C146.45 183.844 146.809 180.995 146.809 178.034ZM189.277 157.039C190.084 157.039 190.892 157.173 191.699 157.443C193.314 159.372 194.615 162.288 195.602 166.191C196.634 170.049 197.15 174.086 197.15 178.303C197.15 183.732 195.961 187.68 193.584 190.147C191.251 192.614 186.922 193.848 180.596 193.848C175.437 193.848 170.525 192.682 165.859 190.349L162.696 146.272L177.097 144.051L174.674 171.036H175.28C177.074 166.729 179.183 163.32 181.606 160.807C184.073 158.295 186.63 157.039 189.277 157.039ZM173.059 189.339C174.271 189.474 175.998 189.541 178.241 189.541C180.484 189.541 182.66 189.272 184.768 188.734C185.441 185.279 185.778 182.027 185.778 178.976C185.778 175.881 185.643 173.032 185.374 170.43C185.105 167.828 184.791 166.034 184.432 165.047C178.689 167.335 174.899 175.432 173.059 189.339ZM210.881 193.242L207.449 159.932L221.849 157.712L217.543 192.637L210.881 193.242ZM209.535 152.463C208.323 151.207 207.718 149.726 207.718 148.022C207.718 146.317 208.323 144.859 209.535 143.648C210.791 142.391 212.271 141.763 213.976 141.763C215.681 141.763 217.139 142.391 218.35 143.648C219.606 144.859 220.234 146.317 220.234 148.022C220.234 149.726 219.606 151.207 218.35 152.463C217.139 153.674 215.681 154.28 213.976 154.28C212.271 154.28 210.791 153.674 209.535 152.463Z" fill="#FCFBFB"/>
</g>
<g filter="url(#filter5_d_10_272)">
<path d="M169.237 241.451L164.578 214.921L158.137 216.14L157.441 211.384L181.099 208.659L181.232 211.781L174.791 212.999L174.302 240.54L169.237 241.451ZM195.439 239.626C193.026 239.837 190.872 239.807 188.978 239.536C187.083 239.266 185.476 238.705 184.154 237.854C183.767 236.641 183.469 235.545 183.258 234.565C183.076 233.552 182.946 232.597 182.867 231.7C182.626 228.946 182.824 226.388 183.459 224.026C184.125 221.66 185.051 219.599 186.238 217.843C187.422 216.056 188.691 214.698 190.044 213.769C191.356 214.153 192.692 214.644 194.054 215.242C195.444 215.806 196.737 216.504 197.932 217.335C199.127 218.165 200.116 219.139 200.9 220.255C201.68 221.34 202.132 222.579 202.254 223.971C202.381 225.425 202.225 226.671 201.785 227.707C201.374 228.709 200.525 229.516 199.238 230.128C197.951 230.739 196.054 231.154 193.548 231.374C192.496 231.466 191.471 231.509 190.473 231.502C189.506 231.493 188.659 231.443 187.934 231.35C187.474 232.856 187.312 234.398 187.45 235.976C188.17 236.006 188.95 236.016 189.791 236.005C190.629 235.963 191.435 235.908 192.209 235.84C193.663 235.713 195.138 235.474 196.635 235.125C198.161 234.742 199.673 234.205 201.171 233.513L202.957 237.893C201.755 238.403 200.51 238.792 199.225 239.061C197.939 239.329 196.677 239.518 195.439 239.626ZM190.625 228.964C191.801 228.861 192.971 228.696 194.136 228.469C195.332 228.24 196.37 227.993 197.251 227.729C197.29 227.102 197.285 226.51 197.236 225.953C197.139 224.84 196.897 223.863 196.512 223.024C196.155 222.151 195.73 221.393 195.238 220.75C193.605 222.047 192.272 223.379 191.238 224.748C190.235 226.114 189.38 227.561 188.672 229.088C188.984 229.092 189.31 229.079 189.65 229.049C189.991 229.019 190.315 228.991 190.625 228.964ZM211.701 237.782L206.5 205.595L216.298 203.195L216.288 223.398L225.15 210.838L228.471 212.979L221.935 221.127L233.322 235.283L224.557 236.658L217.805 226.305L216.272 228.029L216.259 236.963L211.701 237.782Z" fill="#FFF700"/>
</g>
<defs>
<filter id="filter0_d_10_272" x="113.085" y="135.059" width="183.493" height="160.318" filterUnits="userSpaceOnUse" color-interpolation-filters="sRGB">
<feFlood flood-opacity="0" result="BackgroundImageFix"/>
<feColorMatrix in="SourceAlpha" type="matrix" values="0 0 0 0 0 0 0 0 0 0 0 0 0 0 0 0 0 0 127 0" result="hardAlpha"/>
<feOffset dy="10"/>
<feGaussianBlur stdDeviation="5"/>
<feComposite in2="hardAlpha" operator="out"/>
<feColorMatrix type="matrix" values="0 0 0 0 0 0 0 0 0 0 0 0 0 0 0 0 0 0 0.25 0"/>
<feBlend mode="normal" in2="BackgroundImageFix" result="effect1_dropShadow_10_272"/>
<feBlend mode="normal" in="SourceGraphic" in2="effect1_dropShadow_10_272" result="shape"/>
</filter>
<filter id="filter1_d_10_272" x="84.9071" y="111.246" width="199.867" height="181.941" filterUnits="userSpaceOnUse" color-interpolation-filters="sRGB">
<feFlood flood-opacity="0" result="BackgroundImageFix"/>
<feColorMatrix in="SourceAlpha" type="matrix" values="0 0 0 0 0 0 0 0 0 0 0 0 0 0 0 0 0 0 127 0" result="hardAlpha"/>
<feOffset dy="10"/>
<feGaussianBlur stdDeviation="5"/>
<feComposite in2="hardAlpha" operator="out"/>
<feColorMatrix type="matrix" values="0 0 0 0 0 0 0 0 0 0 0 0 0 0 0 0 0 0 0.25 0"/>
<feBlend mode="normal" in2="BackgroundImageFix" result="effect1_dropShadow_10_272"/>
<feBlend mode="normal" in="SourceGraphic" in2="effect1_dropShadow_10_272" result="shape"/>
</filter>
<filter id="filter2_d_10_272" x="68.6518" y="82.4635" width="195.407" height="211.249" filterUnits="userSpaceOnUse" color-interpolation-filters="sRGB">
<feFlood flood-opacity="0" result="BackgroundImageFix"/>
<feColorMatrix in="SourceAlpha" type="matrix" values="0 0 0 0 0 0 0 0 0 0 0 0 0 0 0 0 0 0 127 0" result="hardAlpha"/>
<feOffset dy="10"/>
<feGaussianBlur stdDeviation="5"/>
<feComposite in2="hardAlpha" operator="out"/>
<feColorMatrix type="matrix" values="0 0 0 0 0 0 0 0 0 0 0 0 0 0 0 0 0 0 0.25 0"/>
<feBlend mode="normal" in2="BackgroundImageFix" result="effect1_dropShadow_10_272"/>
<feBlend mode="normal" in="SourceGraphic" in2="effect1_dropShadow_10_272" result="shape"/>
</filter>
<filter id="filter3_d_10_272" x="39.2068" y="57.1587" width="224.769" height="242.917" filterUnits="userSpaceOnUse" color-interpolation-filters="sRGB">
<feFlood flood-opacity="0" result="BackgroundImageFix"/>
<feColorMatrix in="SourceAlpha" type="matrix" values="0 0 0 0 0 0 0 0 0 0 0 0 0 0 0 0 0 0 127 0" result="hardAlpha"/>
<feOffset dy="10"/>
<feGaussianBlur stdDeviation="5"/>
<feComposite in2="hardAlpha" operator="out"/>
<feColorMatrix type="matrix" values="0 0 0 0 0 0 0 0 0 0 0 0 0 0 0 0 0 0 0.25 0"/>
<feBlend mode="normal" in2="BackgroundImageFix" result="effect1_dropShadow_10_272"/>
<feBlend mode="normal" in="SourceGraphic" in2="effect1_dropShadow_10_272" result="shape"/>
</filter>
<filter id="filter4_d_10_272" x="82.7089" y="141.763" width="149.14" height="72.0847" filterUnits="userSpaceOnUse" color-interpolation-filters="sRGB">
<feFlood flood-opacity="0" result="BackgroundImageFix"/>
<feColorMatrix in="SourceAlpha" type="matrix" values="0 0 0 0 0 0 0 0 0 0 0 0 0 0 0 0 0 0 127 0" result="hardAlpha"/>
<feOffset dy="10"/>
<feGaussianBlur stdDeviation="5"/>
<feComposite in2="hardAlpha" operator="out"/>
<feColorMatrix type="matrix" values="0 0 0 0 0 0 0 0 0 0 0 0 0 0 0 0 0 0 0.25 0"/>
<feBlend mode="normal" in2="BackgroundImageFix" result="effect1_dropShadow_10_272"/>
<feBlend mode="normal" in="SourceGraphic" in2="effect1_dropShadow_10_272" result="shape"/>
</filter>
<filter id="filter5_d_10_272" x="147.177" y="201.96" width="96.2344" height="60.7503" filterUnits="userSpaceOnUse" color-interpolation-filters="sRGB">
<feFlood flood-opacity="0" result="BackgroundImageFix"/>
<feColorMatrix in="SourceAlpha" type="matrix" values="0 0 0 0 0 0 0 0 0 0 0 0 0 0 0 0 0 0 127 0" result="hardAlpha"/>
<feOffset dy="10"/>
<feGaussianBlur stdDeviation="5"/>
<feComposite in2="hardAlpha" operator="out"/>
<feColorMatrix type="matrix" values="0 0 0 0 0 0 0 0 0 0 0 0 0 0 0 0 0 0 0.25 0"/>
<feBlend mode="normal" in2="BackgroundImageFix" result="effect1_dropShadow_10_272"/>
<feBlend mode="normal" in="SourceGraphic" in2="effect1_dropShadow_10_272" result="shape"/>
</filter>
</defs>
</svg>
