<svg width="150" height="150" viewBox="0 0 300 300" fill="none" xmlns="http://www.w3.org/2000/svg">
    <g filter="url(#filter0_d_10_272)">
    <path d="M127.483 175.073C118.46 165.763 124.143 150.15 137.039 148.818L269.435 135.145C280.839 133.967 289.544 145.129 285.623 155.903L245.859 265.154C241.938 275.927 228.094 278.883 220.115 270.65L127.483 175.073Z" fill="#FC54FF"/>
    </g>
    <g filter="url(#filter1_d_10_272)">
    <path d="M105.963 199.79C87.9598 188.236 92.8432 160.541 114.09 153.699L241.758 112.584C260.214 106.641 277.668 121.331 274.371 140.032L254.88 250.569C251.583 269.27 229.779 279.248 214.141 269.212L105.963 199.79Z" fill="#FFE661"/>
    </g>
    <g filter="url(#filter2_d_10_272)">
    <path d="M91.8293 208.167C74.2594 199.242 74.2593 173.908 91.8293 163.045L215.551 86.5574C232.778 75.9074 254.059 87.202 254.059 106.995L254.059 246.328C254.059 266.121 232.778 279.762 215.551 271.012L91.8293 208.167Z" fill="#61FFEC"/>
    </g>
    <g filter="url(#filter3_d_10_272)">
    <path d="M65.4783 216.953C47.6507 209.818 43.5279 186.436 57.8399 173.634L180.654 63.7753C195.776 50.2482 219.875 58.59 223.398 78.5713L253.565 249.658C257.089 269.64 237.296 285.721 218.459 278.181L65.4783 216.953Z" fill="#5973FF"/>
    </g>
    <g filter="url(#filter4_d_10_272)">
    <path d="M105.966 187.321C110.676 187.321 115.185 186.513 119.492 184.898L121.779 192.166C118.146 193.287 114.445 193.848 110.676 193.848C106.908 193.848 103.543 193.444 100.582 192.637C97.6662 191.829 95.4231 190.775 93.8529 189.474C93.0903 185.706 92.7089 181.982 92.7089 178.303C92.7089 170.811 94.1221 164.015 96.9484 157.914C99.7747 151.812 103.027 147.551 106.706 145.128L119.693 153.338C113.502 157.286 108.59 162.31 104.956 168.411C101.322 174.513 99.5055 180.659 99.5055 186.85C101.435 187.164 103.588 187.321 105.966 187.321ZM154.615 179.851C154.615 184.741 153.539 188.308 151.385 190.551C149.277 192.749 145.351 193.848 139.609 193.848C133.867 193.848 129.38 192.547 126.15 189.945C125.477 186.715 125.141 183.485 125.141 180.255C125.141 177.025 125.59 173.997 126.487 171.17C127.429 168.299 128.595 165.854 129.986 163.835C132.902 159.708 135.504 157.084 137.792 155.962C142.099 158.16 145.89 161.144 149.165 164.912C152.798 169.039 154.615 174.019 154.615 179.851ZM146.809 178.034C146.809 173.772 145.912 169.869 144.118 166.325C140.394 168.299 137.321 171.305 134.898 175.343C132.476 179.38 131.265 183.463 131.265 187.59C132.7 187.859 134.764 187.994 137.456 187.994C140.147 187.994 142.906 187.523 145.733 186.58C146.45 183.844 146.809 180.995 146.809 178.034ZM189.277 157.039C190.084 157.039 190.892 157.173 191.699 157.443C193.314 159.372 194.615 162.288 195.602 166.191C196.634 170.049 197.15 174.086 197.15 178.303C197.15 183.732 195.961 187.68 193.584 190.147C191.251 192.614 186.922 193.848 180.596 193.848C175.437 193.848 170.525 192.682 165.859 190.349L162.696 146.272L177.097 144.051L174.674 171.036H175.28C177.074 166.729 179.183 163.32 181.606 160.807C184.073 158.295 186.63 157.039 189.277 157.039ZM173.059 189.339C174.271 189.474 175.998 189.541 178.241 189.541C180.484 189.541 182.66 189.272 184.768 188.734C185.441 185.279 185.778 182.027 185.778 178.976C185.778 175.881 185.643 173.032 185.374 170.43C185.105 167.828 184.791 166.034 184.432 165.047C178.689 167.335 174.899 175.432 173.059 189.339ZM210.881 193.242L207.449 159.932L221.849 157.712L217.543 192.637L210.881 193.242ZM209.535 152.463C208.323 151.207 207.718 149.726 207.718 148.022C207.718 146.317 208.323 144.859 209.535 143.648C210.791 142.391 212.271 141.763 213.976 141.763C215.681 141.763 217.139 142.391 218.35 143.648C219.606 144.859 220.234 146.317 220.234 148.022C220.234 149.726 219.606 151.207 218.35 152.463C217.139 153.674 215.681 154.28 213.976 154.28C212.271 154.28 210.791 153.674 209.535 152.463Z" fill="#FCFBFB"/>
    </g>
    <g filter="url(#filter5_d_10_272)">
    <path d="M161.378 212.021C165.799 210.169 170.036 209.066 174.089 208.711C178.173 208.354 181.553 208.682 184.23 209.695C185.47 212.112 186.209 214.681 186.447 217.404C186.769 221.086 186.179 224.676 184.677 228.175C183.206 231.67 180.866 234.681 177.658 237.207C174.477 239.698 170.804 241.189 166.638 241.678L161.378 212.021ZM178.462 221.283C178.265 219.024 177.749 217.043 176.914 215.339C176.11 213.632 175.058 212.477 173.758 211.874C173.201 211.922 172.53 212.09 171.744 212.377L171.356 237.337C174.04 235.949 175.969 233.769 177.144 230.798C178.315 227.796 178.755 224.624 178.462 221.283ZM198.564 213.024C206.314 215.37 210.384 218.77 210.774 223.226C210.977 225.546 210.459 227.291 209.221 228.459C208.011 229.594 205.627 230.317 202.069 230.628C199.81 230.826 197.939 230.818 196.455 230.605C195.994 232.11 195.833 233.652 195.971 235.23C197.379 235.294 198.966 235.249 200.729 235.094C203.947 234.813 206.934 234.037 209.692 232.767L211.478 237.147C209.281 238.056 206.775 238.634 203.96 238.88C198.947 239.319 195.186 238.728 192.675 237.109C191.987 234.955 191.559 232.904 191.388 230.955C191.047 227.056 191.591 223.47 193.019 220.196C194.478 216.92 196.327 214.529 198.564 213.024ZM197.192 228.342C197.597 228.338 198.604 228.266 200.213 228.125C201.853 227.981 203.706 227.601 205.772 226.984C205.813 226.388 205.808 225.796 205.757 225.208C205.594 223.352 204.928 221.617 203.758 220.005C200.874 222.315 198.685 225.094 197.192 228.342ZM223.786 212.033L228.404 229.54L228.776 229.507L233.22 211.348L237.068 212.04L230.008 235.573L226.301 236.505L213.988 214.433L223.786 212.033Z" fill="#343434"/>
    </g>
    <defs>
    <filter id="filter0_d_10_272" x="113.085" y="135.059" width="183.493" height="160.318" filterUnits="userSpaceOnUse" color-interpolation-filters="sRGB">
    <feFlood flood-opacity="0" result="BackgroundImageFix"/>
    <feColorMatrix in="SourceAlpha" type="matrix" values="0 0 0 0 0 0 0 0 0 0 0 0 0 0 0 0 0 0 127 0" result="hardAlpha"/>
    <feOffset dy="10"/>
    <feGaussianBlur stdDeviation="5"/>
    <feComposite in2="hardAlpha" operator="out"/>
    <feColorMatrix type="matrix" values="0 0 0 0 0 0 0 0 0 0 0 0 0 0 0 0 0 0 0.25 0"/>
    <feBlend mode="normal" in2="BackgroundImageFix" result="effect1_dropShadow_10_272"/>
    <feBlend mode="normal" in="SourceGraphic" in2="effect1_dropShadow_10_272" result="shape"/>
    </filter>
    <filter id="filter1_d_10_272" x="84.9071" y="111.246" width="199.867" height="181.941" filterUnits="userSpaceOnUse" color-interpolation-filters="sRGB">
    <feFlood flood-opacity="0" result="BackgroundImageFix"/>
    <feColorMatrix in="SourceAlpha" type="matrix" values="0 0 0 0 0 0 0 0 0 0 0 0 0 0 0 0 0 0 127 0" result="hardAlpha"/>
    <feOffset dy="10"/>
    <feGaussianBlur stdDeviation="5"/>
    <feComposite in2="hardAlpha" operator="out"/>
    <feColorMatrix type="matrix" values="0 0 0 0 0 0 0 0 0 0 0 0 0 0 0 0 0 0 0.25 0"/>
    <feBlend mode="normal" in2="BackgroundImageFix" result="effect1_dropShadow_10_272"/>
    <feBlend mode="normal" in="SourceGraphic" in2="effect1_dropShadow_10_272" result="shape"/>
    </filter>
    <filter id="filter2_d_10_272" x="68.6518" y="82.4635" width="195.407" height="211.249" filterUnits="userSpaceOnUse" color-interpolation-filters="sRGB">
    <feFlood flood-opacity="0" result="BackgroundImageFix"/>
    <feColorMatrix in="SourceAlpha" type="matrix" values="0 0 0 0 0 0 0 0 0 0 0 0 0 0 0 0 0 0 127 0" result="hardAlpha"/>
    <feOffset dy="10"/>
    <feGaussianBlur stdDeviation="5"/>
    <feComposite in2="hardAlpha" operator="out"/>
    <feColorMatrix type="matrix" values="0 0 0 0 0 0 0 0 0 0 0 0 0 0 0 0 0 0 0.25 0"/>
    <feBlend mode="normal" in2="BackgroundImageFix" result="effect1_dropShadow_10_272"/>
    <feBlend mode="normal" in="SourceGraphic" in2="effect1_dropShadow_10_272" result="shape"/>
    </filter>
    <filter id="filter3_d_10_272" x="39.2068" y="57.1587" width="224.769" height="242.917" filterUnits="userSpaceOnUse" color-interpolation-filters="sRGB">
    <feFlood flood-opacity="0" result="BackgroundImageFix"/>
    <feColorMatrix in="SourceAlpha" type="matrix" values="0 0 0 0 0 0 0 0 0 0 0 0 0 0 0 0 0 0 127 0" result="hardAlpha"/>
    <feOffset dy="10"/>
    <feGaussianBlur stdDeviation="5"/>
    <feComposite in2="hardAlpha" operator="out"/>
    <feColorMatrix type="matrix" values="0 0 0 0 0 0 0 0 0 0 0 0 0 0 0 0 0 0 0.25 0"/>
    <feBlend mode="normal" in2="BackgroundImageFix" result="effect1_dropShadow_10_272"/>
    <feBlend mode="normal" in="SourceGraphic" in2="effect1_dropShadow_10_272" result="shape"/>
    </filter>
    <filter id="filter4_d_10_272" x="82.7089" y="141.763" width="149.14" height="72.0847" filterUnits="userSpaceOnUse" color-interpolation-filters="sRGB">
    <feFlood flood-opacity="0" result="BackgroundImageFix"/>
    <feColorMatrix in="SourceAlpha" type="matrix" values="0 0 0 0 0 0 0 0 0 0 0 0 0 0 0 0 0 0 127 0" result="hardAlpha"/>
    <feOffset dy="10"/>
    <feGaussianBlur stdDeviation="5"/>
    <feComposite in2="hardAlpha" operator="out"/>
    <feColorMatrix type="matrix" values="0 0 0 0 0 0 0 0 0 0 0 0 0 0 0 0 0 0 0.25 0"/>
    <feBlend mode="normal" in2="BackgroundImageFix" result="effect1_dropShadow_10_272"/>
    <feBlend mode="normal" in="SourceGraphic" in2="effect1_dropShadow_10_272" result="shape"/>
    </filter>
    <filter id="filter5_d_10_272" x="151.187" y="203.268" width="97.96" height="59.1051" filterUnits="userSpaceOnUse" color-interpolation-filters="sRGB">
    <feFlood flood-opacity="0" result="BackgroundImageFix"/>
    <feColorMatrix in="SourceAlpha" type="matrix" values="0 0 0 0 0 0 0 0 0 0 0 0 0 0 0 0 0 0 127 0" result="hardAlpha"/>
    <feOffset dy="10"/>
    <feGaussianBlur stdDeviation="5"/>
    <feComposite in2="hardAlpha" operator="out"/>
    <feColorMatrix type="matrix" values="0 0 0 0 0 0 0 0 0 0 0 0 0 0 0 0 0 0 0.25 0"/>
    <feBlend mode="normal" in2="BackgroundImageFix" result="effect1_dropShadow_10_272"/>
    <feBlend mode="normal" in="SourceGraphic" in2="effect1_dropShadow_10_272" result="shape"/>
    </filter>
    </defs>
    </svg>
    