<?xml version="1.0" encoding="UTF-8" standalone="no"?>
<!-- Created with Inkscape (http://www.inkscape.org/) -->

<svg
   width="99.688011mm"
   height="116.56286mm"
   viewBox="0 0 99.688008 116.56282"
   version="1.1"
   id="svg1"
   xmlns="http://www.w3.org/2000/svg"
   xmlns:svg="http://www.w3.org/2000/svg">
  <defs
     id="defs1" />
  <g
     id="layer1"
     transform="translate(-62.970839,-56.091668)">
    <path
       style="fill:#fa643f;fill-opacity:1"
       d="m 88.708897,166.87017 c -0.56883,-0.17296 -2.20107,-4.05202 -2.93823,-6.98277 -1.20637,-4.79622 -0.53938,-10.6936 1.73182,-15.31249 0.99864,-2.03091 1.28226,-2.1671 4.62604,-2.22134 1.200551,-0.0195 2.182811,-0.12092 2.182811,-0.22544 0,-0.10452 -0.3122,-1.47949 -0.69379,-3.05549 -0.64221,-2.65238 -0.68399,-3.18004 -0.56188,-7.09629 0.13192,-4.23083 0.13192,-4.23083 -1.009391,-5.50024 -0.7976,-0.88713 -1.43783,-2.03469 -2.12596,-3.81067 -0.98162,-2.53341 -1.24695,-2.74464 -1.751,-1.39391 -1.20245,3.22229 -3.68714,-7.34655 -2.87998,-12.25027 0.11377,-0.69122 0.16578,-1.25677 0.11556,-1.25677 -0.0502,0 -0.5356,0.23813 -1.07862,0.52917 -2.38802,1.2799 -4.41661,0.61284 -3.40838,-1.12077 0.48325,-0.83094 2.28094,-6.931 2.28094,-7.739869 0,-0.051 -0.62507,-0.29546 -1.38906,-0.54333 -1.68988,-0.54826 -1.96757,-0.77399 -1.55849,-1.26691 0.40932,-0.49319 0.15603,-1.09626 -0.60631,-1.44361 -1.9376,-0.88282 -3.28373,-2.90785 -3.89261,-5.85576 -0.47907,-2.31945 -1.96909,-4.9624 -3.36056,-5.96088 -1.77765,-1.27559 -3.44356,-4.06259 -5.34535,-8.94258 -1.23203,-3.1614 -1.35525,-2.87487 1.66913,-3.88136 6.19643,-2.06213 13.83299,-1.42695 19.97866,1.66174 2.34792,1.18002 2.34809,1.17998 2.51159,-0.55328 0.3053,-3.23649 1.40997,-4.70268 2.346811,-3.11485 0.69714,1.18156 1.03147,1.18156 0.83973,0 -0.16693,-1.02869 0.2904,-1.30435 0.548709,-0.33073 0.0869,0.32742 0.57486,1.07156 1.08442,1.65365 0.92649,1.05833 0.92649,1.05833 0.50403,0.007 -0.46765,-1.16356 -0.52993,-4.17212 -0.10926,-5.27855 0.47531,-1.25016 1.59523,-0.66408 1.59523,0.83482 0,2.42828 1.14203,3.51135 4.168503,3.95329 2.72973,0.39861 2.51905,0.54574 1.88934,-1.3195 -1.36993,-4.05788 -0.82736,-7.66845 0.94495,-6.28825 0.56963,0.4436 1.60672,0.51139 2.10976,0.13791 0.92191,-0.68448 1.22965,-0.48883 1.04522,0.66452 -0.38214,2.38973 0.30318,3.02869 3.69931,3.44905 2.91341,0.36062 3.10307,-0.5212 0.7006,-3.25747 -2.30268,-2.62261 3.44991,-1.9465 6.74726,0.79302 2.88704,2.39862 3.08467,2.47512 2.8797,1.1147 -0.0962,-0.63842 -0.18951,-1.27983 -0.20737,-1.42535 -0.11827,-0.9635 1.01086,-0.10825 1.46525,1.10984 0.49117,1.31669 2.5617,3.58385 3.9531,4.3285 0.92423,0.49463 0.37224,-0.93368 -1.33482,-3.45396 -1.33623,-1.97279 -1.01442,-2.38774 0.82077,-1.05834 1.26999,0.91998 1.49862,0.95903 1.9556,0.33407 0.73391,-1.00368 5.87802,4.56057 6.81151,7.36785 0.12132,0.36483 0.40363,0.29581 1.96947,-0.48143 5.14368,-2.55321 11.38792,-0.85581 14.92855,4.05809 1.95733,2.71649 6.54087,11.8219 6.96432,13.83493 0.43621,2.07364 0.51357,3.13261 0.20642,2.82546 -0.10728,-0.10728 -0.19658,-0.39502 -0.19843,-0.63941 -0.003,-0.37382 -0.40234,-0.46863 -2.51692,-0.59732 -3.28679,-0.20003 -4.33415,-0.72634 -5.79308,-2.9111 -1.08609,-1.62643 -1.08609,-1.62643 -1.0919,-0.6041 -0.0115,2.01822 -1.82616,4.54758 -5.10299,7.11264 -1.00776,0.78887 -1.00776,0.78887 0.59374,3.69928 0.88082,1.600729 1.84251,3.624799 2.13708,4.497919 0.29457,0.87313 0.89059,2.2316 1.32449,3.01884 1.2804,2.32306 0.72309,2.8929 -1.84088,1.88228 -1.72079,-0.67828 -1.64735,-0.76175 -1.15965,1.31814 1.1591,4.94315 -0.55181,12.98033 -2.31388,10.86965 -0.71987,-0.86229 -0.71987,-0.86229 -1.02827,0.0722 -0.55752,1.68928 -1.89535,4.24555 -2.97495,5.68441 -1.06113,1.41423 -1.06113,1.41423 -0.75868,4.36561 0.41151,4.01559 -0.18134,7.74619 -1.69106,10.64131 -0.22278,0.42721 -0.4056,0.83628 -0.40627,0.90904 -6.5e-4,0.0728 1.24567,0.13229 2.76961,0.13229 3.64281,0 4.36026,0.86199 6.08938,7.31617 1.3263,4.95063 -0.72596,15.97059 -3.12997,16.80683 -2.7311,0.95001 -10.29462,-0.57324 -15.93581,-3.20938 -2.55879,-1.19573 -2.55879,-1.19573 -3.29234,-0.57849 -0.99495,0.8372 -5.66156,1.26515 -9.78624,0.89746 -0.65485,-0.0584 -1.75203,-0.12686 -2.43819,-0.15218 -0.96293,-0.0355 -1.4494,-0.22325 -2.13221,-0.82276 -0.88464,-0.77672 -0.88464,-0.77672 -3.64723,0.49316 -5.853443,2.69068 -13.912073,4.40968 -16.699403,3.56217 z m 7.66862,-5.03595 c 4.034113,-1.21783 11.377103,-4.79284 10.828543,-5.27198 -0.0684,-0.0598 -3.59445,-1.00661 -4.75878,-1.27789 -0.65881,-0.1535 -0.72799,-0.10027 -0.73165,0.56311 -0.002,0.40296 -0.10798,0.89673 -0.23501,1.09728 -0.34597,0.54622 -0.81928,0.10487 -0.81928,-0.76397 0,-0.42075 -0.18682,-0.86954 -0.41515,-0.99732 -0.518823,-0.29035 0.3153,-2.94381 1.2322,-3.9198 0.86493,-0.92068 -1.727943,-2.58749 -6.770172,-4.3522 -1.16417,-0.40744 -2.514001,-0.89898 -2.999631,-1.09232 -2.81612,-1.12114 -4.20672,7.46679 -2.38387,14.72216 0.29144,1.16001 0.5956,2.21544 0.67592,2.3454 0.24848,0.40204 3.139071,-0.075 6.37688,-1.05247 z m -5.09426,-0.68039 c -1.72316,-4.1241 -1.32205,-14.16775 0.50524,-12.65123 0.35039,0.2908 0.45104,0.22257 0.6922,-0.46921 0.23263,-0.66733 0.420381,-0.80556 1.069131,-0.78711 0.55344,0.0157 0.74554,0.13029 0.64739,0.38605 -1.17798,3.06978 -1.609381,9.19516 -0.84588,12.01049 0.22004,0.81136 0.43676,1.6448 0.4816,1.85208 0.20194,0.93351 -2.148501,0.61909 -2.549681,-0.34107 z m 4.43284,-2.78778 c -1.374649,-3.24489 -0.49616,-7.0474 1.9826,-8.58153 1.11228,-0.68841 1.18554,-0.59152 0.82473,1.09088 -0.16325,0.76118 -0.24272,1.75249 -0.17661,2.20292 0.0661,0.45043 0.0248,1.244 -0.0919,1.7635 -0.11664,0.5195 -0.11827,1.63519 -0.004,2.47931 0.23019,1.69502 -0.009,2.0371 -1.42254,2.0371 -0.54894,0 -0.77942,-0.20552 -1.11268,-0.99218 z m 46.092243,3.18724 c 1.98653,-6.83341 0.99019,-16.3944 -1.64688,-15.80351 -2.54494,0.57026 -3.56452,1.49547 -2.66768,2.42077 0.7445,0.76812 0.90323,0.83413 1.16033,0.48252 0.32566,-0.44535 0.76865,-0.5708 0.50411,-0.14275 -0.0899,0.14552 0.0184,0.26458 0.24066,0.26458 0.24139,0 0.34584,-0.15208 0.2593,-0.37757 -0.10596,-0.27613 0.004,-0.33872 0.40807,-0.23297 2.62622,0.68677 0.60756,13.83971 -2.12405,13.83971 -2.12969,0 -1.40047,0.67231 0.95143,0.87718 2.6449,0.2304 2.4337,0.32663 2.91471,-1.32796 z m -5.23126,0.12005 c 1.97681,-2.49738 1.9377,-11.19034 -0.0599,-13.30839 -0.996,-1.05607 -1.29055,-1.02167 -4.43653,0.51815 -3.05976,1.49763 -3.3117,1.76237 -2.50523,2.63257 0.36284,0.39151 0.79217,1.23788 0.95406,1.88082 0.38032,1.51039 0.3711,1.72841 -0.0731,1.72841 -0.2117,0 -0.44241,0.39969 -0.54434,0.94303 -0.21508,1.14648 -0.77396,1.08104 -0.89099,-0.10433 -0.0752,-0.76116 -0.14995,-0.82572 -0.79375,-0.68525 -1.57048,0.34267 -3.22432,1.02794 -3.22432,1.33601 0,1.03351 8.50721,5.34285 10.61708,5.37809 0.38237,0.006 0.81301,-0.13721 0.95699,-0.31911 z m -3.02227,-2.40138 c -1.21968,-0.45051 -1.22144,-0.45536 -1.18965,-3.28071 0.016,-1.42238 0.0348,-3.06239 0.0417,-3.64447 0.0191,-1.60663 0.25104,-1.82571 1.52775,-1.4432 1.27381,0.38164 1.74112,2.41117 1.40183,6.08813 -0.25405,2.75312 -0.30944,2.82402 -1.78162,2.28025 z m 3.30235,-5.08916 c -0.12441,-1.06567 0.17336,-1.47888 0.41528,-0.57628 0.23088,0.86139 0.20073,1.51838 -0.0696,1.51838 -0.12959,0 -0.28512,-0.42395 -0.34563,-0.9421 z m -0.8078,-2.27646 c -0.41043,-0.46069 -0.72422,-1.11939 -0.71983,-1.51105 0.008,-0.69435 0.008,-0.69435 0.79373,0.16972 0.4323,0.47524 0.786,1.15985 0.786,1.52136 0,0.80844 0.0255,0.81377 -0.8599,-0.18003 z m -23.74635,8.28706 c 0,-0.12273 -0.24206,-0.92641 -0.53791,-1.78593 -2.21529,-6.43594 -0.37582,-10.1661 5.00916,-10.15784 4.87223,0.007 7.08133,4.50838 4.96197,10.10969 -0.68589,1.81276 -0.59675,2.30275 0.3288,1.80742 2.00307,-1.07202 1.95523,-6.91861 -0.0959,-11.72257 -0.1497,-0.35058 -0.072,-0.46302 0.32007,-0.46302 0.28478,0 1.01086,-0.35719 1.61352,-0.79375 1.305,-0.94533 1.36491,-0.95553 1.36491,-0.23219 0,0.47355 0.0633,0.50902 0.40396,0.22631 1.13048,-0.93822 3.3002,-5.2154 3.3002,-6.50571 0,-0.76263 -2.13294,-0.21517 -2.91041,0.747 -5.54069,6.85698 -12.61913,7.4274 -18.13028,1.46104 -2.41776,-2.61747 -4.09443,-3.42831 -4.09493,-1.9803 -7e-4,2.02833 0.88167,4.94215 1.75207,5.78577 0.94377,0.91474 1.15514,0.69029 0.63593,-0.67532 -0.34897,-0.91788 -0.25792,-0.88096 1.64577,0.66732 0.91024,0.7403 1.92287,1.45173 2.25029,1.58095 0.71833,0.2835 0.71702,0.23489 0.0627,2.32214 -1.16896,3.72915 -0.17767,9.83216 1.59701,9.83216 0.28769,0 0.52307,-0.10043 0.52307,-0.22317 z m 3.4737,-1.43048 c 0.0188,-0.1819 0.0579,-0.62838 0.0869,-0.99219 0.029,-0.3638 0.1422,-1.04841 0.25149,-1.52135 0.23859,-1.0325 -0.0146,-1.13982 -0.38578,-0.16352 -0.26101,0.68649 -0.27257,0.68932 -0.81427,0.19909 -0.56448,-0.51085 -0.56671,-0.56352 -0.1728,-4.07047 0.13007,-1.15793 -1.16832,-0.91897 -1.43764,0.26459 -0.43523,1.91271 0.45114,6.20361 1.32934,6.43525 0.82756,0.21828 1.10846,0.18106 1.14276,-0.1514 z m 3.96793,-0.39687 c 0.83599,-2.13596 0.17686,-6.79287 -0.9931,-7.01653 -0.68825,-0.13156 -0.69029,-0.12684 -0.47326,1.09402 0.28233,1.58824 0.28259,4.69285 4.8e-4,5.79021 -0.30619,1.19104 1.00517,1.30939 1.46588,0.1323 z m 0.8124,-14.91994 c 1.78963,-0.55482 3.9168,-2.04446 3.9168,-2.74291 0,-0.2743 -0.58522,-0.36072 -2.51336,-0.37117 -1.38235,-0.007 -2.80001,-0.0856 -3.15035,-0.1735 -0.35035,-0.0879 -0.88621,-0.0265 -1.19081,0.13651 -0.41623,0.22276 -0.55381,0.21903 -0.55381,-0.015 0,-0.32622 -6.12972,-0.14738 -8.3161,0.24262 -1.04007,0.18553 -1.04007,0.18553 0.21946,1.29421 2.63567,2.32001 7.26202,2.97047 11.58817,1.62928 z m -20.02239,-3.28082 c -0.983273,-1.28815 -1.989973,-4.1077 -1.989973,-5.57347 0,-1.28218 0.29657,-1.10298 1.09196,0.65981 1.099743,2.43729 1.997953,2.96617 5.320113,3.13256 5.12524,0.25671 11.4472,-1.60406 8.93052,-2.62855 -3.22856,-1.31428 -3.96575,-2.0498 -4.16841,-4.15895 -0.11421,-1.18863 -0.19904,-1.34262 -0.73958,-1.34262 -3.05697,0 -2.74936,-6.88562 0.36948,-8.27059 2.38559,-1.05935 12.35145,-0.76437 14.10524,0.41751 2.69797,1.81816 2.84703,7.27798 0.21086,7.72336 -0.99219,0.16763 -1.04315,0.22352 -1.04409,1.14516 -0.002,1.92258 -2.25552,3.98513 -4.82929,4.41997 -1.46725,0.24789 -0.76687,0.93489 1.88156,1.84563 5.56873,1.91497 13.26747,0.71879 13.26747,-2.06141 0,-0.60139 0.99752,-1.52641 1.16772,-1.08287 0.36953,0.96298 -0.43402,3.42043 -1.73829,5.31613 -0.99689,1.44892 -0.62302,1.43848 1.00823,-0.0282 2.03557,-1.83014 2.60943,-3.21819 2.58383,-6.24973 -0.0442,-5.23508 -1.03652,-7.38695 -5.7954,-12.5677 -5.73498,-6.2434 -8.03678,-10.10159 -6.02349,-10.09639 0.62879,0.002 0.92265,0.31741 2.16376,2.32519 2.24742,3.63573 3.77733,5.50756 6.11062,7.47629 1.1875,1.00197 2.50448,2.29854 2.9266,2.88127 0.76751,1.05951 0.76751,1.05951 1.17701,0.0303 1.1751,-2.95334 1.85773,-3.89999 1.5134,-2.09872 -0.174,0.91023 0.14205,2.06119 0.50448,1.8372 0.97011,-0.59956 3.12014,-6.70702 3.12888,-8.88798 0.002,-0.53712 0.12546,-1.0517 0.27403,-1.14353 0.30241,-0.18689 1.05279,1.41246 1.05279,2.24389 0,1.29003 0.50419,0.37767 0.67554,-1.22244 0.35565,-3.321 -0.31867,-7.30187 -1.55657,-9.18928 -0.60259,-0.91875 -0.40325,-1.16577 0.4759,-0.58973 1.08998,0.71418 0.87822,-0.43976 -0.38862,-2.11768 -0.58208,-0.77096 -1.05833,-1.48975 -1.05833,-1.5973 0,-0.31797 1.79394,1.51571 2.54948,2.60595 0.88144,1.27192 1.39387,1.32328 0.65165,0.0653 -0.61669,-1.04521 -0.68384,-1.28617 -0.29071,-1.04321 0.55877,0.34534 0.22432,-0.59645 -0.70595,-1.9879 -2.0145,-3.013209 -3.25561,-4.206369 -6.14829,-5.910739 -6.91268,-4.07295 -7.80259,-12.13722 -1.74473,-15.81045 6.14072,-3.72346 11.52296,-2.70225 16.5526,3.14065 2.06864,2.40313 2.15395,2.31828 0.58018,-0.57709 -4.11292,-7.56686 -10.24422,-9.47346 -16.66873,-5.18334 -1.86661,1.24647 -2.06186,1.27051 -3.24278,0.39926 -3.35517,-2.47537 -10.31814,-2.55049 -10.31814,-0.11133 0,1.33819 -0.24562,1.30774 -1.30053,-0.1612 -1.56954,-2.18554 -4.59147,-4.07633 -8.22447,-5.14596 -1.09141,-0.32133 -2.84758,-1.05757 -3.90261,-1.63608 -2.52692,-1.38561 -2.55795,-0.43672 -0.11768,3.59873 0.8482,1.40266 1.10987,2.10443 1.10987,2.97656 0,1.25051 -0.42001,1.53593 -0.68814,0.46763 -0.56126,-2.23626 -6.61975,-4.74097 -10.108603,-4.17911 -1.13398,0.18263 -1.72102,0.17584 -1.94068,-0.0224 -0.17321,-0.15635 0.2406,0.52511 0.91958,1.51434 1.85435,2.7017 1.71152,3.09227 -0.61758,1.68873 -1.49979,-0.90379 -3.173219,-1.59293 -3.375909,-1.39024 -0.0633,0.0633 0.67449,1.02047 1.639559,2.12704 6.573363,7.53712 5.600813,13.72923 -2.88891,18.39341 -3.46352,1.90283 -7.0164,5.637289 -7.0164,7.374989 0,0.18069 -0.1893,0.69459 -0.42066,1.142 -0.36166,0.69936 -0.15377,0.58376 1.48205,-0.82414 2.16477,-1.86317 2.33316,-1.89153 1.54348,-0.25997 -1.16481,2.40663 -0.9637,3.94537 0.37774,2.8902 1.00661,-0.7918 1.33692,-0.66959 0.83157,0.30766 -1.37351,2.65606 -1.98877,6.56834 -1.49118,9.48192 0.24853,1.45521 0.24853,1.45521 0.55909,0.66146 1.00043,-2.55692 1.30665,-2.98194 1.33442,-1.85209 0.0578,2.35045 1.39456,7.02437 2.39958,8.38981 0.29021,0.39429 0.527661,0.90031 0.527661,1.12448 0,0.22417 0.11906,0.40759 0.26458,0.40759 0.34026,0 0.3365,-0.6876 -0.0101,-1.85383 -0.15111,-0.50836 -0.386451,-1.46008 -0.523001,-2.11492 -0.13654,-0.65484 -0.31843,-1.48828 -0.40419,-1.85208 -0.0858,-0.36381 0.42638,0.4101 1.138081,1.71979 2.842199,5.2303 2.736759,5.09779 3.355169,4.21648 0.60706,-0.86514 1.87586,-2.15829 4.298533,-4.38101 0.89168,-0.81809 2.18731,-2.3659 2.87917,-3.43958 2.63062,-4.0824 3.12138,-4.76338 3.62842,-5.03473 1.92963,-1.03271 -0.083,3.86249 -2.84272,6.91426 -7.863613,8.6957 -8.143233,9.21085 -8.188553,15.08603 -0.0304,3.94192 0.69114,5.76083 3.0062,7.57826 1.867543,1.46612 2.091903,1.45465 0.944683,-0.0483 z m 3.56628,-18.32752 c 0,-0.14208 0.18854,-0.33068 0.41898,-0.41911 0.25768,-0.0989 0.37864,-0.0397 0.31419,0.1536 -0.13183,0.3955 -0.73317,0.61327 -0.73317,0.26551 z m 22.93055,0.0378 c -0.30444,-0.30443 -0.19268,-0.61736 0.22049,-0.61736 0.21828,0 0.39687,0.1786 0.39687,0.39688 0,0.41316 -0.31292,0.52492 -0.61736,0.22048 z m 11.72986,-3.26319 c 0,-0.19403 0.0794,-0.2734 0.17639,-0.17639 0.097,0.097 0.097,0.25576 0,0.35278 -0.097,0.097 -0.17639,0.0176 -0.17639,-0.17639 z m -39.092513,-6.22902 c -0.7817,-0.3926 -1.91174,-1.29493 -2.58366,-2.06304 -0.65685,-0.75088 -1.57225,-1.4925 -2.03422,-1.64804 -1.132639,-0.38136 -1.193369,-0.76526 -0.187009,-1.18211 0.460419,-0.19071 1.387649,-0.85979 2.060499,-1.48684 2.0037,-1.86731 5.649673,-2.94964 7.439223,-2.20838 2.49342,1.0328 4.30138,6.27177 2.08412,6.03919 -0.66998,-0.0703 -0.8647,0.0666 -1.36583,0.95996 -1.14845,2.04739 -3.26417,2.66855 -5.413123,1.58926 z m 4.386103,-4.70777 c 0.12385,-0.64306 -0.68793,-1.49863 -1.42191,-1.49863 -1.08512,0 -1.0978,1.41765 -0.0166,1.86061 0.79771,0.32684 1.33178,0.19245 1.43856,-0.36198 z m 25.25267,4.82127 c -0.47014,-0.13583 -1.49434,-0.90201 -2.27601,-1.70263 -0.90203,-0.92389 -1.565,-1.40049 -1.8148,-1.30463 -1.25502,0.48159 -0.96613,-2.40859 0.42275,-4.22951 2.25871,-2.96132 5.64256,-2.63118 10.02531,0.97811 2.28644,1.88295 2.28644,1.88295 1.3024,2.33806 -0.54121,0.25031 -1.50708,1.07513 -2.14637,1.83294 -1.9111,2.26541 -3.2038,2.75491 -5.51328,2.08766 z m 1.91312,-5.39386 c 0,-0.89776 -0.791,-1.12613 -1.27004,-0.36669 -0.40565,0.64308 -0.0262,1.34451 0.67354,1.24515 0.46756,-0.0664 0.5965,-0.25628 0.5965,-0.87846 z m -21.66658,1.16876 c -0.0662,-0.20624 -0.26812,-1.02982 -0.4487,-1.83018 -0.18058,-0.80037 -0.37999,-1.30147 -0.44315,-1.11357 -0.0807,0.24025 -0.29079,0.16172 -0.7077,-0.26458 -0.32608,-0.33343 -1.02889,-0.93873 -1.56181,-1.34511 -0.71701,-0.54677 -0.96894,-0.93542 -0.96894,-1.49479 0,-0.47075 -0.39924,-1.28725 -1.05833,-2.16441 -1.55334,-2.067309 -1.48136,-2.148429 1.11043,-1.251479 1.14312,0.3956 1.67244,0.47595 1.7429,0.26458 0.1396,-0.4188 0.58625,-0.38284 0.58625,0.0472 0,0.19292 0.31383,0.6394 0.6974,0.992189 1.2278,1.12927 1.74496,2.7064 1.78244,5.43571 0.0317,2.30975 -0.37597,3.82966 -0.73079,2.72445 z m 11.8191,-0.97029 c -0.92118,-3.34671 0.74591,-7.986629 2.87686,-8.007059 0.19582,-0.002 1.11129,-0.24016 2.03438,-0.52951 2.03802,-0.63885 2.39258,-0.48588 1.52135,0.65636 -0.3648,0.47828 -0.60058,0.932279 -0.52396,1.008899 0.17021,0.17021 -0.85859,2.25881 -1.43583,2.91491 -0.57898,0.65808 -2.07496,1.33189 -2.44681,1.10207 -0.40393,-0.24964 -0.76835,0.35346 -0.77342,1.27997 -0.008,1.55214 -0.93734,2.71962 -1.25257,1.57436 z m 4.99877,-3.92979 c 0.23711,-0.23711 0.55798,-0.38752 0.71303,-0.33425 0.15506,0.0533 -0.0389,0.24727 -0.43111,0.43111 -0.65898,0.30892 -0.68035,0.30157 -0.28192,-0.0969 z m -5.12262,25.91522 c 1.40576,-0.16882 1.40576,-0.16882 1.23745,-1.25447 -0.33971,-2.19111 -0.56313,-2.36722 -3.50283,-2.76093 -1.98415,-0.26574 -1.96732,-0.27786 -1.53225,1.10414 1.01648,3.22887 1.03497,3.24303 3.79763,2.91126 z M 91.797797,92.450221 c 2.553291,-1.17248 2.486481,-1.79943 -0.22841,-2.14364 -1.11888,-0.14186 -2.29912,-0.39426 -2.62275,-0.56088 -1.46029,-0.75184 -3.40449,-2.45693 -4.04215,-3.54502 -0.90366,-1.54197 -1.02123,-1.50076 -0.81143,0.28437 0.52378,4.45655 4.42036,7.47336 7.70474,5.96517 z m 64.280423,-3.93417 c -1.13297,-1.74995 -1.30624,-1.90156 -2.18261,-1.90991 -1.37932,-0.0131 -2.18088,-0.59618 -4.00127,-2.91046 -4.64162,-5.90093 -9.96439,-7.25363 -9.75657,-2.47948 0.0788,1.80975 0.0788,1.80975 2.6777,1.995 3.84487,0.27407 5.10766,0.72456 7.10511,2.53473 3.14759,2.85248 7.46985,4.79692 6.15764,2.77012 z m -58.601193,-2.69458 c 2.642353,-4.93727 -8.89178,-12.6608 -18.98904,-12.71552 -1.06736,-0.006 -0.21479,2.50968 0.8744,2.57988 9.20941,0.59353 17.06562,5.32877 17.06562,10.28609 0,0.54085 0.7355,0.43537 1.04902,-0.15045 z m 36.013623,-13.05074 c -0.57972,-1.75655 -2.6888,-3.54558 -2.64821,-2.24634 0.03,0.9618 0.31034,1.4038 1.53818,2.42556 1.33037,1.10709 1.52422,1.07579 1.11003,-0.17922 z m -14.45998,-4.82771 c -0.7845,-1.02853 -2.17483,-2.1258 -2.40364,-1.897 -0.4577,0.45771 0.53374,1.99448 1.70238,2.63875 1.46939,0.81006 1.69935,0.56682 0.70126,-0.74175 z m 40.63279,-10.18478 c 0,-0.19403 0.0794,-0.2734 0.17639,-0.17639 0.097,0.097 0.097,0.25577 0,0.35278 -0.097,0.097 -0.17639,0.0176 -0.17639,-0.17639 z"
       id="path4" />
    <path
       style="fill:#ececec;fill-opacity:1;stroke-width:0.684463"
       d="m 138.39147,317.33356 c -4.52482,-3.6638 -8.05581,-8.55837 -9.42265,-13.0614 -1.41416,-4.65896 -2.02529,-19.22434 -1.09542,-26.10774 1.5294,-11.32144 4.72322,-16.54412 22.35844,-36.5615 6.00404,-6.81506 11.94715,-13.83533 13.2069,-15.60058 3.57139,-5.00446 7.79255,-14.03591 8.1842,-17.51062 0.31219,-2.76971 0.19673,-3.15275 -0.95028,-3.15275 -2.47561,0 -4.43294,2.21028 -12.02402,13.57795 -6.72883,10.07647 -9.0574,12.87993 -19.99057,24.06752 -6.80603,6.96442 -12.66049,12.66257 -13.0099,12.66257 -0.34942,0 -3.37002,-4.92813 -6.71246,-10.95141 -3.34244,-6.02327 -6.52165,-11.40242 -7.06491,-11.95366 -0.86556,-0.87826 -0.98776,-0.83379 -0.98776,0.3594 0,0.74892 0.93638,5.19626 2.08084,9.883 2.82536,11.5703 2.43287,12.82358 -1.50052,4.79135 -4.75162,-9.70311 -8.79388,-24.07955 -8.79388,-31.27573 0,-1.52058 -0.29065,-2.28016 -0.80668,-2.10815 -0.98229,0.32742 -1.4356,1.09145 -3.766146,6.34758 l -1.820928,4.10678 -0.528224,-2.73785 c -0.771267,-3.99758 -0.706703,-14.37714 0.121343,-19.50721 0.653677,-4.04979 3.12782,-12.00327 5.474575,-17.5988 0.5071,-1.20911 0.68789,-2.43249 0.40176,-2.71862 -0.28613,-0.28613 -2.045609,0.33721 -3.909953,1.38521 -2.900812,1.63063 -3.449174,1.75051 -3.801949,0.83119 -0.612376,-1.59582 0.30452,-5.70008 2.248671,-10.0656 2.946609,-6.6165 2.052588,-6.95166 -4.442066,-1.66529 -5.562274,4.52745 -7.058483,5.22647 -5.743065,2.68313 0.357404,-0.69105 0.854571,-2.39144 1.104816,-3.77867 0.59047,-3.27326 5.086388,-9.30134 11.271817,-15.11312 4.804959,-4.51471 8.673729,-7.26509 19.331079,-13.74285 6.3625,-3.86725 14.02686,-10.84777 17.26218,-15.72199 6.57246,-9.90184 6.95038,-21.37805 1.1167,-33.91097 -2.44331,-5.249165 -6.62576,-11.327877 -13.0127,-18.912474 -2.61721,-3.10799 -4.75857,-5.839786 -4.75857,-6.070657 0,-0.695208 6.80503,2.209325 11.1702,4.767684 2.24838,1.317739 4.967,2.571696 6.04137,2.786571 2.95432,0.590863 2.54984,-1.298615 -1.74091,-8.132568 l -3.69431,-5.883985 6.60328,-0.462668 c 4.96131,-0.347622 7.94578,-0.182799 12.00224,0.662844 12.64943,2.637004 23.80343,9.182307 25.76225,15.117601 0.95549,2.895161 2.4598,3.028843 3.06521,0.272396 0.80746,-3.676357 -0.31494,-7.021015 -5.51185,-16.424791 -4.76554,-8.623216 -5.89168,-11.738089 -4.5447,-12.570563 0.30574,-0.188958 3.77083,1.151129 7.70021,2.977971 3.92937,1.826842 10.31538,4.42182 14.19111,5.766617 14.66996,5.090167 22.94731,10.406759 30.21934,19.410057 3.15599,3.90734 4.82836,4.574726 4.82836,1.926833 0,-5.821639 4.38496,-8.262823 14.71596,-8.192619 9.77245,0.06641 17.00185,2.26323 25.11366,7.63137 3.38264,2.238528 4.92831,1.898094 12.60202,-2.775597 18.81884,-11.461658 34.30238,-10.430496 48.73256,3.245459 4.81053,4.559093 10.65041,12.502453 13.79569,18.764779 0.82189,1.636413 1.35459,3.11506 1.18376,3.28589 -0.17082,0.17082 -2.42096,-2.038067 -5.00032,-4.908644 -16.9721,-18.888377 -36.03542,-23.531188 -56.14059,-13.67286 -14.34096,7.031921 -21.08094,16.609003 -20.9539,29.774134 0.0906,9.38319 4.3746,18.76709 11.92543,26.12184 1.90469,1.85523 7.37495,5.94833 12.15614,9.09578 5.21982,3.4362 10.13614,7.30159 12.30487,9.67453 3.6757,4.0218 9.16208,11.74953 11.32651,15.95373 1.05998,2.0589 1.07148,2.27627 0.10073,1.90375 -1.38431,-0.5312 -1.39004,0.40455 -0.0187,3.05643 1.82932,3.53751 0.71378,2.82136 -3.4062,-2.18669 -3.81045,-4.63183 -6.93339,-7.35714 -7.63106,-6.65947 -0.18419,0.18419 1.01173,2.30497 2.6576,4.71285 5.55077,8.12065 6.52458,10.89061 3.22971,9.18677 -4.08677,-2.11335 -4.33216,-1.30161 -1.41772,4.68967 4.07086,8.36853 6.02812,21.14965 4.84001,31.60578 -0.70528,6.20693 -2.07412,9.50325 -2.10239,5.06277 -0.0193,-3.03887 -2.34658,-8.17933 -3.70301,-8.17933 -1.14362,0 -1.47773,1.12531 -2.0492,6.90177 -0.5497,5.55633 -4.14284,17.12189 -7.58435,24.41242 -3.91476,8.29305 -5.12891,8.31074 -5.12891,0.0747 0,-2.87188 -0.23099,-3.94844 -0.77503,-3.61221 -0.42627,0.26345 -2.2038,3.53344 -3.95008,7.26663 l -3.17504,6.78763 -2.33561,-3.11718 c -1.28459,-1.71445 -5.99914,-6.38706 -10.4768,-10.38356 -9.3735,-8.36627 -13.96582,-13.88565 -22.77438,-27.3719 -6.28447,-9.62177 -7.56765,-10.84392 -10.56299,-10.06062 -1.9084,0.49906 -2.25309,2.26822 -1.08627,5.57535 2.16245,6.12903 8.96493,15.22672 24.33669,32.54808 17.42509,19.63509 20.53588,25.44479 21.87419,40.85218 0.7921,9.11916 -0.0581,16.84189 -2.37568,21.57882 -1.64261,3.35736 -10.28907,12.4427 -11.08457,11.6472 -0.18737,-0.18737 0.76488,-2.13178 2.11609,-4.32093 4.10834,-6.65604 6.85802,-16.32924 5.29916,-18.64211 -1.16402,-1.72705 -4.05837,0.85184 -4.95573,4.41561 -0.47831,1.89955 -1.5254,3.70975 -2.73422,4.7269 -8.83673,7.43562 -35.55082,7.86574 -51.43726,0.82819 -1.97398,-0.87445 -3.99683,-2.08372 -4.49523,-2.68728 -0.79769,-0.96597 -0.55185,-1.18549 2.05339,-1.83348 6.89901,-1.71599 13.40878,-5.94875 16.27075,-10.57952 0.76206,-1.23304 1.62329,-3.89373 1.91384,-5.91264 0.52288,-3.63328 0.55964,-3.67967 3.60304,-4.54608 1.69112,-0.48144 3.75344,-1.64984 4.58294,-2.59643 5.56155,-6.34661 2.61706,-22.37932 -4.97141,-27.06925 -3.69263,-2.28217 -11.35054,-3.41879 -25.96868,-3.8544 -15.19737,-0.45286 -24.1824,0.35644 -28.51889,2.56875 -5.60828,2.86113 -9.27064,11.45907 -8.63935,20.28215 0.51429,7.18778 2.49865,10.0452 7.72255,11.1202 1.91631,0.39435 2.10341,0.71866 2.87695,4.98671 1.4613,8.06275 3.37126,10.23865 12.73171,14.50434 2.89918,1.3212 5.27124,2.71278 5.27124,3.0924 0,1.06875 -6.01713,3.83991 -10.95142,5.04361 -10.87855,2.6538 -27.51164,3.20514 -34.4589,1.14223 -3.77545,-1.12109 -6.87585,-4.34119 -10.20344,-10.59741 -1.59932,-3.00688 -3.21586,-5.47095 -3.59231,-5.4757 -1.16408,-0.0147 -1.15491,5.45916 0.0167,9.98066 1.19812,4.62368 4.09149,11.22075 6.50092,14.82249 1.99554,2.98306 1.05866,2.76475 -3.30767,-0.77072 z m 106.25606,-68.6527 c 0.56926,-1.48348 -1.08478,-3.13752 -2.56826,-2.56825 -1.43243,0.54967 -1.45201,1.2615 -0.0726,2.64088 1.37938,1.37938 2.09121,1.3598 2.64089,-0.0726 z m -86.25141,-0.66091 c 0.23736,-0.61856 0.29353,-1.2627 0.12481,-1.43142 -0.62908,-0.62909 -3.14778,0.63156 -3.14778,1.57551 0,1.3561 2.49289,1.23728 3.02297,-0.14409 z m 129.07843,-11.53791 c 0,-0.56468 -0.308,-1.02669 -0.68446,-1.02669 -0.37645,0 -0.68446,0.46201 -0.68446,1.02669 0,0.56469 0.30801,1.0267 0.68446,1.0267 0.37646,0 0.68446,-0.46201 0.68446,-1.0267 z m -135.6979,-22.61339 c 3.16797,-1.32365 4.48092,-2.49777 7.81617,-6.98964 2.31593,-3.11907 2.97836,-3.59343 5.01809,-3.59343 3.04122,0 4.06867,-1.80112 3.5458,-6.21584 -0.71636,-6.04856 -6.01259,-14.22156 -10.86729,-16.77009 -2.95847,-1.55309 -10.17269,-1.21953 -16.01088,0.74029 -5.58899,1.87616 -8.86855,3.75195 -14.31292,8.18645 -1.97294,1.60699 -4.85859,3.63637 -6.41256,4.50975 -1.55396,0.87337 -2.82539,2.08588 -2.82539,2.69446 0,0.63028 1.30086,1.73849 3.02259,2.57498 1.66242,0.80767 5.67568,3.96753 8.91834,7.02192 8.83418,8.32126 15.39219,10.64722 22.10805,7.84115 z m 111.26233,-0.73916 c 1.20479,-0.60913 4.96259,-3.80055 8.35069,-7.09206 3.38809,-3.2915 7.16119,-6.49713 8.38467,-7.12363 3.31905,-1.69956 2.84126,-3.23184 -2.39562,-7.68291 -10.22771,-8.69302 -19.48237,-13.27908 -26.76617,-13.26376 -6.88528,0.0145 -14.34902,5.84922 -17.18776,13.43645 -2.32315,6.20918 -1.53755,11.99848 1.47148,10.8438 0.59316,-0.22761 3.13988,1.53185 6.41804,4.43406 2.98907,2.64627 6.66672,5.42859 8.17253,6.18293 3.44669,1.72663 10.39268,1.86251 13.55214,0.26512 z m -84.0198,-21.24459 c 0.58114,-6.20156 -0.53109,-15.63073 -2.31131,-19.59473 -0.71273,-1.58704 -2.51623,-4.27156 -4.00777,-5.96561 -1.49155,-1.69404 -2.91054,-3.6191 -3.15331,-4.27789 -0.48817,-1.32471 -1.54183,-1.57106 -2.19553,-0.51335 -0.66797,1.0808 -3.00673,0.7997 -8.83709,-1.06214 -7.34391,-2.34517 -7.78221,-1.69262 -3.23631,4.81827 3.43631,4.92166 4.29263,6.69856 5.16992,10.72777 0.39098,1.79567 10.35312,10.84124 11.93976,10.84124 0.40089,0 1.04877,1.23203 1.43974,2.73785 0.39096,1.50582 1.05006,4.04689 1.46466,5.64682 0.4146,1.59994 0.92363,3.18664 1.13117,3.52601 0.84432,1.3806 2.14473,-2.06785 2.59607,-6.88424 z m 45.14874,2.24699 c 0.58546,-0.89351 1.25106,-3.28058 1.4791,-5.30459 0.5015,-4.45093 1.28569,-6.15126 2.60368,-5.6455 1.63548,0.62759 5.85377,-1.13445 8.55232,-3.57243 1.55605,-1.4058 3.3872,-4.22004 4.73388,-7.27537 1.20792,-2.74051 2.96976,-6.44613 3.91519,-8.23472 2.82605,-5.34637 2.36455,-5.45099 -9.99674,-2.26622 -6.45725,1.66365 -7.44459,2.13032 -9.72552,4.59688 -3.72067,4.02344 -5.44555,9.16067 -5.84956,17.42172 -0.49141,10.0484 1.42651,14.64688 4.28765,10.28023 z m 17.54289,-15.46422 c 1.57319,-1.3106 1.57799,-1.34675 0.18191,-1.36892 -0.78868,-0.0125 -1.99145,0.59324 -2.67282,1.34615 -1.0459,1.1557 -1.07423,1.36893 -0.18191,1.36893 0.58132,0 1.78408,-0.60577 2.67282,-1.34616 z"
       id="path1"
       transform="matrix(0.26458333,0,0,0.26458333,62.970839,56.091668)" />
    <path
       style="fill:#ececec;fill-opacity:1;stroke-width:0.342232"
       d="m 126.85385,113.73497 c -0.12548,-0.12548 -0.22815,-0.79387 -0.22815,-1.48529 0,-2.14023 -1.29328,-6.44802 -2.76512,-9.21036 -7.04126,-13.21503 -27.811499,-24.383234 -52.216263,-28.076805 -2.417693,-0.365909 -5.76861,-0.772937 -7.446483,-0.904508 -2.830301,-0.221937 -3.143128,-0.322742 -4.330481,-1.395444 -1.940388,-1.753024 -2.944336,-4.241404 -2.766282,-6.856495 0.08874,-1.303355 0.966765,-1.465225 6.079795,-1.12085 24.549382,1.653457 52.020944,14.567388 63.694664,29.941823 3.27967,4.319366 5.20058,9.740249 4.72416,13.331739 -0.28766,2.16843 -1.44289,4.86264 -2.36066,5.50547 -0.74359,0.52083 -1.99323,0.66267 -2.38518,0.27072 z"
       id="path2"
       transform="matrix(0.26458333,0,0,0.26458333,62.970839,56.091668)" />
    <path
       style="fill:#ececec;fill-opacity:1;stroke-width:0.342232"
       d="m 97.730324,138.10053 c -2.969618,-0.85206 -6.030516,-2.65862 -8.651044,-5.10591 -5.523139,-5.158 -8.652103,-11.98276 -9.226509,-20.12446 -0.210604,-2.98513 -0.187797,-3.15448 0.363554,-2.6995 0.323541,0.26699 1.227289,1.57602 2.00833,2.90897 2.958923,5.04978 12.822858,13.4837 17.285049,14.77917 0.890856,0.25863 4.380716,0.93584 7.755236,1.5049 3.54617,0.59801 6.57921,1.29302 7.18687,1.64684 2.37577,1.38334 1.18521,2.87005 -4.52438,5.64977 -3.43336,1.67154 -3.61062,1.71752 -7.01575,1.8197 -2.28628,0.0686 -4.076657,-0.0625 -5.181356,-0.37948 z"
       id="path3"
       transform="matrix(0.26458333,0,0,0.26458333,62.970839,56.091668)" />
    <path
       style="fill:#ececec;fill-opacity:1;stroke-width:0.342232"
       d="m 150.06856,196.13953 c -2.46368,-1.13133 -3.5463,-3.13594 -2.73529,-5.06476 0.47872,-1.13855 1.07859,-1.47846 2.60916,-1.47846 2.36591,0 5.08849,2.55953 5.08849,4.78375 0,2.30579 -2.12888,3.06061 -4.96236,1.75947 z"
       id="path5"
       transform="matrix(0.26458333,0,0,0.26458333,62.970839,56.091668)" />
    <path
       style="fill:#ececec;fill-opacity:1;stroke-width:0.342232"
       d="m 253.83112,195.40532 c -1.12464,-0.88464 -1.37706,-1.70218 -0.90788,-2.94039 0.90655,-2.39245 3.15135,-3.32634 4.24441,-1.76577 0.55027,0.78562 0.72107,3.54686 0.26387,4.26589 -0.24518,0.3856 -1.85862,1.13366 -2.4451,1.13366 -0.15059,0 -0.67047,-0.31202 -1.1553,-0.69339 z"
       id="path6"
       transform="matrix(0.26458333,0,0,0.26458333,62.970839,56.091668)" />
    <path
       style="fill:#ececec;fill-opacity:1;stroke-width:0.342232"
       d="m 211.84137,276.62368 c -1.815,-0.66348 -3.05333,-2.86187 -5.10965,-9.07106 -1.70182,-5.13873 -1.72258,-6.21035 -0.12335,-6.36498 1.49327,-0.1444 10.82955,1.23748 12.7515,1.88736 3.32867,1.12554 4.40851,2.82058 5.29716,8.31498 0.58756,3.63277 0.39759,4.3227 -1.2695,4.61062 -4.64179,0.80168 -10.2323,1.10337 -11.54616,0.62308 z"
       id="path7"
       transform="matrix(0.26458333,0,0,0.26458333,62.970839,56.091668)" />
    <path
       style="fill:#ececec;fill-opacity:1;stroke-width:0.342232"
       d="m 349.03131,124.95211 c -4.2128,-1.36146 -11.92303,-6.07554 -17.40888,-10.64388 -6.59692,-5.49359 -7.48436,-6.18604 -9.42815,-7.35653 -4.12821,-2.48588 -10.18898,-3.85216 -20.51711,-4.6252 -5.96762,-0.44666 -7.74751,-0.839 -8.77685,-1.93468 -0.76778,-0.817262 -0.80564,-1.08546 -0.80564,-5.706793 0,-4.661092 0.0368,-4.915617 0.9495,-6.560387 2.51,-4.523449 7.37213,-5.095997 14.54568,-1.712848 6.4314,3.033142 13.13358,8.900012 21.18299,18.542898 2.69896,3.23325 5.56077,6.44716 6.35957,7.14203 1.94212,1.68941 5.22866,3.23113 6.92808,3.24997 4.07509,0.0452 5.42625,0.94098 8.6094,5.70801 2.77349,4.15352 2.34052,5.18334 -1.63859,3.89741 z"
       id="path8"
       transform="matrix(0.26458333,0,0,0.26458333,62.970839,56.091668)" />
    <path
       style="fill:#ececec;fill-opacity:1;stroke-width:0.684463"
       d="m 193.15892,331.90271 c -8.02357,-1.22434 -16.31587,-5.16033 -20.61985,-9.78735 -0.91125,-0.97965 -1.49908,-1.93891 -1.30628,-2.13171 1.16038,-1.16038 23.60297,-2.24697 33.76395,-1.63473 1.12936,0.068 2.82341,0.0357 3.76454,-0.0719 3.58522,-0.4098 22.64274,0.90325 23.06673,1.58928 0.66585,1.07736 -4.63297,5.43629 -9.55271,7.85827 -7.72645,3.80372 -20.0144,5.567 -29.11638,4.1781 z"
       id="path9"
       transform="matrix(0.26458333,0,0,0.26458333,62.970839,56.091668)" />
    <path
       style="fill:#ececec;fill-opacity:1;stroke-width:0.684463"
       d="m 182.0736,392.30911 c -2.31814,-2.31814 -3.86025,-7.15977 -4.83568,-15.18217 -0.82332,-6.77141 -0.13296,-13.95659 2.07017,-21.54612 0.76461,-2.63398 1.3902,-5.16879 1.3902,-5.63291 0,-0.46411 -1.17834,-1.44499 -2.61852,-2.17972 -1.44019,-0.73473 -5.18647,-3.35906 -8.32505,-5.83185 -3.13859,-2.47278 -6.00287,-4.49597 -6.36506,-4.49597 -0.62118,0 -0.42617,1.68306 0.62412,5.38675 0.44882,1.58271 0.41904,1.59536 -1.22297,0.51946 -3.33053,-2.18224 -6.96338,-11.42678 -7.83548,-19.93901 -0.39389,-3.84453 -0.29552,-4.47959 0.75636,-4.88323 2.02999,-0.77898 5.6679,1.75923 14.41294,10.0561 8.72279,8.27575 14.08978,11.75596 21.47819,13.92746 4.6541,1.36786 14.19721,1.40907 19.18082,0.0828 8.60673,-2.29045 18.75864,-9.07632 25.83405,-17.26836 3.83803,-4.44374 7.00197,-6.3625 10.49142,-6.3625 2.08971,0 2.18473,0.10945 1.79345,2.06586 -0.78959,3.94794 -4.6174,12.14621 -8.16632,17.49037 -3.64695,5.49174 -4.67708,6.22807 -5.28089,3.7747 -0.38036,-1.54546 0.0835,-1.71305 -6.92197,2.50114 -2.02796,1.21994 -4.22623,2.22097 -4.88502,2.2245 -1.57264,0.008 -1.54362,0.26532 0.83072,7.35222 5.49698,16.40738 5.27856,33.30472 -0.48913,37.84159 -0.9482,0.74586 -1.99048,1.35611 -2.31617,1.35611 -1.08217,0 -0.61355,-3.1232 1.24008,-8.26479 1.60158,-4.44246 1.83854,-6.15929 1.88227,-13.63803 0.0447,-7.63789 -0.1206,-8.8989 -1.54043,-11.75392 -4.47186,-8.99201 -12.98805,-12.95082 -24.69705,-11.48059 -17.16014,2.15471 -22.11028,16.0981 -14.08835,39.68356 2.01832,5.93412 1.94014,5.21658 0.62343,5.72185 -0.66766,0.25621 -1.82121,-0.32639 -3.02013,-1.52532 z"
       id="path10"
       transform="matrix(0.26458333,0,0,0.26458333,62.970839,56.091668)" />
    <path
       style="fill:#ececec;fill-opacity:1;stroke-width:0.241994"
       d="m 196.56507,388.77978 c -0.829,-0.16198 -1.73453,-0.50018 -2.0123,-0.75156 -1.29677,-1.17356 -2.91757,-5.79659 -3.89933,-11.12211 -0.72436,-3.92922 -0.79888,-11.19319 -0.13437,-13.09692 0.53627,-1.53634 1.88091,-2.93109 3.03442,-3.14749 0.73247,-0.13741 0.93357,-0.0673 1.41582,0.4933 0.68611,0.79765 0.68865,1.00618 0.0813,6.67633 -0.53602,5.00447 -0.61426,8.10138 -0.2304,9.11953 0.30964,0.8213 1.50794,2.10493 2.59343,2.77811 1.01988,0.63249 1.28009,0.42423 2.11279,-1.69101 1.17831,-2.99315 1.85741,-3.2789 1.3778,-0.57974 -0.1589,0.89421 -0.44473,2.49702 -0.63519,3.56179 -0.19046,1.06478 -0.46179,3.18145 -0.60296,4.70372 -0.14116,1.52226 -0.33972,2.84402 -0.44124,2.93723 -0.397,0.36452 -1.21528,0.40108 -2.65981,0.11882 z"
       id="path11"
       transform="matrix(0.26458333,0,0,0.26458333,62.970839,56.091668)" />
    <path
       style="fill:#ececec;fill-opacity:1;stroke-width:0.241994"
       d="m 210.05507,389.29961 c -0.93777,-0.47448 -1.11155,-1.33984 -0.75219,-3.74576 0.85826,-5.74615 0.74849,-15.78208 -0.23958,-21.9027 -0.59819,-3.70553 -0.53226,-3.89685 1.22974,-3.56865 1.51663,0.28251 2.65032,1.6078 3.58288,4.18841 2.18446,6.04495 2.62415,15.29348 0.99187,20.86301 -0.66051,2.25375 -1.46315,3.43809 -2.7153,4.00659 -1.20081,0.54518 -1.31695,0.55399 -2.09742,0.1591 z"
       id="path12"
       transform="matrix(0.26458333,0,0,0.26458333,62.970839,56.091668)" />
    <path
       style="fill:#ececec;fill-opacity:1;stroke-width:0.241994"
       d="m 271.15461,399.53048 c -12.19749,-3.28872 -37.82659,-17.21346 -36.44242,-19.79981 0.69366,-1.29612 10.45178,-4.88151 13.28569,-4.88151 0.98359,0 1.20829,0.36702 1.49301,2.43865 0.45546,3.31396 1.45801,4.58464 2.5842,3.27537 0.30271,-0.35192 0.66553,-1.10093 0.80627,-1.66447 0.68067,-2.72549 0.84832,-3.18665 1.3945,-3.83574 0.33218,-0.39477 0.82767,-0.6978 1.141,-0.6978 1.31917,0 1.37634,-1.27106 0.25584,-5.68821 -0.78057,-3.0771 -2.07096,-5.80314 -3.81561,-8.06077 -1.73801,-2.24905 -1.80325,-2.87529 -0.4351,-4.17679 1.19884,-1.14043 4.59648,-3.05466 10.52969,-5.93244 8.01233,-3.8862 10.52476,-4.73688 12.455,-4.21712 1.31196,0.35327 3.7377,2.6377 4.92079,4.63413 1.62666,2.74494 3.03773,7.93534 3.83988,14.12442 0.47259,3.6463 0.40097,14.47743 -0.12081,18.27057 -1.24141,9.0245 -3.58696,15.30685 -6.1082,16.36029 -1.11436,0.46561 -3.75719,0.39763 -5.78373,-0.14877 z m 0.59545,-8.94216 c 0.26095,-0.26095 0.64101,-1.05046 0.84457,-1.75446 1.0124,-3.50133 1.69065,-16.28398 1.10997,-20.91931 -0.52748,-4.21066 -1.88444,-7.45957 -3.66562,-8.77646 -1.55596,-1.15037 -5.12996,-1.83609 -6.3016,-1.20905 -1.14158,0.61096 -1.24299,1.41719 -1.47388,11.71724 -0.23014,10.26632 -0.13473,15.88598 0.29451,17.34754 0.27175,0.92528 1.34066,2.0006 2.4121,2.42655 4.25994,1.69356 5.96126,1.98664 6.77995,1.16795 z m 9.45099,-16.59058 c 0.42656,-0.51397 0.17587,-4.21725 -0.40099,-5.92344 -1.11499,-3.29782 -2.27747,-0.5995 -1.5161,3.51911 0.4473,2.41968 1.16124,3.31507 1.91709,2.40433 z m -1.74246,-10.70381 c -0.074,-1.44492 -0.25373,-2.19115 -0.78291,-3.25066 -0.87713,-1.75619 -3.97328,-5.37482 -4.68702,-5.47796 -0.5051,-0.073 -0.53511,0.0107 -0.53511,1.4924 0,2.4612 1.04971,4.48326 3.92058,7.55223 1.96715,2.10289 2.2065,2.0666 2.08446,-0.31601 z"
       id="path13"
       transform="matrix(0.26458333,0,0,0.26458333,62.970839,56.091668)" />
    <path
       style="fill:#ececec;fill-opacity:1;stroke-width:0.241994"
       d="m 286.88423,403.49665 c -4.6284,-0.49728 -8.1068,-1.46883 -8.1068,-2.26432 0,-0.35368 1.67474,-0.72881 3.26692,-0.73177 2.31205,-0.004 3.203,-0.36719 4.72807,-1.92577 2.80339,-2.86499 5.64351,-9.91521 7.36976,-18.29448 1.56235,-7.58365 2.26377,-15.89097 1.82133,-21.5708 -0.58409,-7.49813 -2.35991,-10.96371 -5.61797,-10.96371 -0.72487,0 -0.73911,0.0223 -0.61353,0.95851 0.14628,1.09061 -0.19905,1.54446 -1.08,1.41939 -0.57136,-0.0811 -0.64532,-0.37835 -0.33577,-1.34942 0.30398,-0.95357 -0.75636,-0.662 -1.98013,0.54448 -0.60752,0.59894 -1.30045,1.08898 -1.53984,1.08898 -0.65129,0 -3.49643,-2.77917 -3.9143,-3.82353 -0.47074,-1.17649 -0.29654,-2.00388 0.64422,-3.05988 1.47523,-1.65595 4.77146,-3.16479 9.53756,-4.36581 2.00259,-0.50463 3.1257,-0.21453 4.49497,1.16107 2.68292,2.69532 4.64766,8.81655 5.76239,17.95296 0.49032,4.01875 0.42044,17.82735 -0.11421,22.5676 -0.59775,5.29975 -1.51763,10.52523 -2.58768,14.69952 -1.40468,5.47975 -1.89742,6.89728 -2.66397,7.66383 -0.67176,0.67176 -0.73555,0.68446 -3.30504,0.65806 -1.44103,-0.0148 -4.03572,-0.17901 -5.76598,-0.36491 z"
       id="path14"
       transform="matrix(0.26458333,0,0,0.26458333,62.970839,56.091668)" />
    <path
       style="fill:#ececec;fill-opacity:1;stroke-width:0.241994"
       d="m 103.14411,403.95891 c -0.83338,-0.15996 -1.12823,-0.81219 -2.32915,-5.15231 -4.078858,-14.74096 -5.211058,-29.43278 -3.285154,-42.6293 1.557961,-10.67534 5.061204,-17.25766 9.169354,-17.22849 0.76681,0.005 2.64095,0.57145 6.07018,1.83325 2.72849,1.00396 6.5399,2.39382 8.4698,3.08856 12.98524,4.67457 21.78409,9.27623 24.08462,12.5959 0.91403,1.31894 0.79575,2.20575 -0.52692,3.95077 -2.33801,3.08458 -4.44875,8.65577 -4.52221,11.93612 -0.037,1.65066 3.7e-4,1.77993 0.73375,2.54094 0.8102,0.84073 1.18037,1.97222 1.41546,4.32666 0.17912,1.79389 0.84728,2.88798 1.76369,2.88798 1.32985,0 1.94039,-1.20689 2.31129,-4.56889 l 0.28352,-2.56994 0.85629,-0.0724 c 1.14793,-0.0971 18.87741,4.47759 19.40856,5.00795 0.10568,0.10551 -0.22608,0.56967 -0.73724,1.03147 -4.37896,3.95612 -25.4503,13.83205 -38.53696,18.06188 -9.93849,3.21229 -21.55045,5.55077 -24.62888,4.95989 z m 12.75242,-3.81165 c 0.37576,-0.19432 0.74855,-0.60269 0.82842,-0.90748 0.0843,-0.32162 -0.35483,-2.48369 -1.04636,-5.15207 -1.80284,-6.95656 -2.04219,-8.94859 -2.04986,-17.0606 -0.0106,-11.20292 1.28415,-21.01936 3.80648,-28.85948 0.43861,-1.36333 0.7587,-2.66627 0.71131,-2.89543 -0.17477,-0.84516 -3.23251,-1.21025 -4.76686,-0.56915 -0.84559,0.35331 -1.65011,1.61027 -2.28362,3.56788 -0.47838,1.47823 -0.8265,1.60255 -2.28228,0.81506 -1.20229,-0.65037 -1.29502,-0.66453 -1.99181,-0.3042 -1.44638,0.74795 -2.59117,3.80321 -3.42012,9.12777 -0.6279,4.03319 -0.62418,18.88182 0.006,23.95743 0.97803,7.87717 2.82392,14.89139 4.32217,16.42383 1.41609,1.44841 3.33361,2.16891 5.83783,2.19355 0.9994,0.01 1.91373,-0.12253 2.32869,-0.33711 z m 16.16776,-10.37262 c 1.60072,-0.84705 1.93594,-2.55539 1.4092,-7.18166 -0.42221,-3.70814 -0.45889,-6.58141 -0.10659,-8.34881 0.13265,-0.66548 0.32759,-3.98685 0.4332,-7.38082 0.16366,-5.25939 0.29168,-6.67598 0.86678,-9.59066 0.75359,-3.81931 0.7067,-4.687 -0.2533,-4.687 -1.95088,0 -6.77245,3.76746 -8.98136,7.01783 -2.93017,4.31169 -4.36819,9.92015 -4.11916,16.06521 0.1467,3.61981 0.4923,5.59959 1.52554,8.73921 1.09328,3.322 2.27871,5.28664 3.48242,5.77146 0.77237,0.31109 4.9464,0.0169 5.74327,-0.40476 z"
       id="path15"
       transform="matrix(0.26458333,0,0,0.26458333,62.970839,56.091668)" />
  </g>
</svg>
