<?xml version="1.0" encoding="UTF-8" standalone="no"?>
<!-- Created with Inkscape (http://www.inkscape.org/) -->

<svg
   width="99.688011mm"
   height="116.56286mm"
   viewBox="0 0 99.688008 116.56282"
   version="1.1"
   id="svg1"
   xmlns="http://www.w3.org/2000/svg"
   xmlns:svg="http://www.w3.org/2000/svg">
  <defs
     id="defs1" />
  <g
     id="layer1"
     transform="translate(-62.970839,-56.091668)">
    <path
       style="fill:#000000"
       d="m 88.708897,166.87017 c -0.56883,-0.17296 -2.20107,-4.05202 -2.93823,-6.98277 -1.20637,-4.79622 -0.53938,-10.6936 1.73182,-15.31249 0.99864,-2.03091 1.28226,-2.1671 4.62604,-2.22134 1.200551,-0.0195 2.182811,-0.12092 2.182811,-0.22544 0,-0.10452 -0.3122,-1.47949 -0.69379,-3.05549 -0.64221,-2.65238 -0.68399,-3.18004 -0.56188,-7.09629 0.13192,-4.23083 0.13192,-4.23083 -1.009391,-5.50024 -0.7976,-0.88713 -1.43783,-2.03469 -2.12596,-3.81067 -0.98162,-2.53341 -1.24695,-2.74464 -1.751,-1.39391 -1.20245,3.22229 -3.68714,-7.34655 -2.87998,-12.25027 0.11377,-0.69122 0.16578,-1.25677 0.11556,-1.25677 -0.0502,0 -0.5356,0.23813 -1.07862,0.52917 -2.38802,1.2799 -4.41661,0.61284 -3.40838,-1.12077 0.48325,-0.83094 2.28094,-6.931 2.28094,-7.739869 0,-0.051 -0.62507,-0.29546 -1.38906,-0.54333 -1.68988,-0.54826 -1.96757,-0.77399 -1.55849,-1.26691 0.40932,-0.49319 0.15603,-1.09626 -0.60631,-1.44361 -1.9376,-0.88282 -3.28373,-2.90785 -3.89261,-5.85576 -0.47907,-2.31945 -1.96909,-4.9624 -3.36056,-5.96088 -1.77765,-1.27559 -3.44356,-4.06259 -5.34535,-8.94258 -1.23203,-3.1614 -1.35525,-2.87487 1.66913,-3.88136 6.19643,-2.06213 13.83299,-1.42695 19.97866,1.66174 2.34792,1.18002 2.34809,1.17998 2.51159,-0.55328 0.3053,-3.23649 1.40997,-4.70268 2.346811,-3.11485 0.69714,1.18156 1.03147,1.18156 0.83973,0 -0.16693,-1.02869 0.2904,-1.30435 0.548709,-0.33073 0.0869,0.32742 0.57486,1.07156 1.08442,1.65365 0.92649,1.05833 0.92649,1.05833 0.50403,0.007 -0.46765,-1.16356 -0.52993,-4.17212 -0.10926,-5.27855 0.47531,-1.25016 1.59523,-0.66408 1.59523,0.83482 0,2.42828 1.14203,3.51135 4.168503,3.95329 2.72973,0.39861 2.51905,0.54574 1.88934,-1.3195 -1.36993,-4.05788 -0.82736,-7.66845 0.94495,-6.28825 0.56963,0.4436 1.60672,0.51139 2.10976,0.13791 0.92191,-0.68448 1.22965,-0.48883 1.04522,0.66452 -0.38214,2.38973 0.30318,3.02869 3.69931,3.44905 2.91341,0.36062 3.10307,-0.5212 0.7006,-3.25747 -2.30268,-2.62261 3.44991,-1.9465 6.74726,0.79302 2.88704,2.39862 3.08467,2.47512 2.8797,1.1147 -0.0962,-0.63842 -0.18951,-1.27983 -0.20737,-1.42535 -0.11827,-0.9635 1.01086,-0.10825 1.46525,1.10984 0.49117,1.31669 2.5617,3.58385 3.9531,4.3285 0.92423,0.49463 0.37224,-0.93368 -1.33482,-3.45396 -1.33623,-1.97279 -1.01442,-2.38774 0.82077,-1.05834 1.26999,0.91998 1.49862,0.95903 1.9556,0.33407 0.73391,-1.00368 5.87802,4.56057 6.81151,7.36785 0.12132,0.36483 0.40363,0.29581 1.96947,-0.48143 5.14368,-2.55321 11.38792,-0.85581 14.92855,4.05809 1.95733,2.71649 6.54087,11.8219 6.96432,13.83493 0.43621,2.07364 0.51357,3.13261 0.20642,2.82546 -0.10728,-0.10728 -0.19658,-0.39502 -0.19843,-0.63941 -0.003,-0.37382 -0.40234,-0.46863 -2.51692,-0.59732 -3.28679,-0.20003 -4.33415,-0.72634 -5.79308,-2.9111 -1.08609,-1.62643 -1.08609,-1.62643 -1.0919,-0.6041 -0.0115,2.01822 -1.82616,4.54758 -5.10299,7.11264 -1.00776,0.78887 -1.00776,0.78887 0.59374,3.69928 0.88082,1.600729 1.84251,3.624799 2.13708,4.497919 0.29457,0.87313 0.89059,2.2316 1.32449,3.01884 1.2804,2.32306 0.72309,2.8929 -1.84088,1.88228 -1.72079,-0.67828 -1.64735,-0.76175 -1.15965,1.31814 1.1591,4.94315 -0.55181,12.98033 -2.31388,10.86965 -0.71987,-0.86229 -0.71987,-0.86229 -1.02827,0.0722 -0.55752,1.68928 -1.89535,4.24555 -2.97495,5.68441 -1.06113,1.41423 -1.06113,1.41423 -0.75868,4.36561 0.41151,4.01559 -0.18134,7.74619 -1.69106,10.64131 -0.22278,0.42721 -0.4056,0.83628 -0.40627,0.90904 -6.5e-4,0.0728 1.24567,0.13229 2.76961,0.13229 3.64281,0 4.36026,0.86199 6.08938,7.31617 1.3263,4.95063 -0.72596,15.97059 -3.12997,16.80683 -2.7311,0.95001 -10.29462,-0.57324 -15.93581,-3.20938 -2.55879,-1.19573 -2.55879,-1.19573 -3.29234,-0.57849 -0.99495,0.8372 -5.66156,1.26515 -9.78624,0.89746 -0.65485,-0.0584 -1.75203,-0.12686 -2.43819,-0.15218 -0.96293,-0.0355 -1.4494,-0.22325 -2.13221,-0.82276 -0.88464,-0.77672 -0.88464,-0.77672 -3.64723,0.49316 -5.853443,2.69068 -13.912073,4.40968 -16.699403,3.56217 z m 7.66862,-5.03595 c 4.034113,-1.21783 11.377103,-4.79284 10.828543,-5.27198 -0.0684,-0.0598 -3.59445,-1.00661 -4.75878,-1.27789 -0.65881,-0.1535 -0.72799,-0.10027 -0.73165,0.56311 -0.002,0.40296 -0.10798,0.89673 -0.23501,1.09728 -0.34597,0.54622 -0.81928,0.10487 -0.81928,-0.76397 0,-0.42075 -0.18682,-0.86954 -0.41515,-0.99732 -0.518823,-0.29035 0.3153,-2.94381 1.2322,-3.9198 0.86493,-0.92068 -1.727943,-2.58749 -6.770172,-4.3522 -1.16417,-0.40744 -2.514001,-0.89898 -2.999631,-1.09232 -2.81612,-1.12114 -4.20672,7.46679 -2.38387,14.72216 0.29144,1.16001 0.5956,2.21544 0.67592,2.3454 0.24848,0.40204 3.139071,-0.075 6.37688,-1.05247 z m -5.09426,-0.68039 c -1.72316,-4.1241 -1.32205,-14.16775 0.50524,-12.65123 0.35039,0.2908 0.45104,0.22257 0.6922,-0.46921 0.23263,-0.66733 0.420381,-0.80556 1.069131,-0.78711 0.55344,0.0157 0.74554,0.13029 0.64739,0.38605 -1.17798,3.06978 -1.609381,9.19516 -0.84588,12.01049 0.22004,0.81136 0.43676,1.6448 0.4816,1.85208 0.20194,0.93351 -2.148501,0.61909 -2.549681,-0.34107 z m 4.43284,-2.78778 c -1.374649,-3.24489 -0.49616,-7.0474 1.9826,-8.58153 1.11228,-0.68841 1.18554,-0.59152 0.82473,1.09088 -0.16325,0.76118 -0.24272,1.75249 -0.17661,2.20292 0.0661,0.45043 0.0248,1.244 -0.0919,1.7635 -0.11664,0.5195 -0.11827,1.63519 -0.004,2.47931 0.23019,1.69502 -0.009,2.0371 -1.42254,2.0371 -0.54894,0 -0.77942,-0.20552 -1.11268,-0.99218 z m 46.092243,3.18724 c 1.98653,-6.83341 0.99019,-16.3944 -1.64688,-15.80351 -2.54494,0.57026 -3.56452,1.49547 -2.66768,2.42077 0.7445,0.76812 0.90323,0.83413 1.16033,0.48252 0.32566,-0.44535 0.76865,-0.5708 0.50411,-0.14275 -0.0899,0.14552 0.0184,0.26458 0.24066,0.26458 0.24139,0 0.34584,-0.15208 0.2593,-0.37757 -0.10596,-0.27613 0.004,-0.33872 0.40807,-0.23297 2.62622,0.68677 0.60756,13.83971 -2.12405,13.83971 -2.12969,0 -1.40047,0.67231 0.95143,0.87718 2.6449,0.2304 2.4337,0.32663 2.91471,-1.32796 z m -5.23126,0.12005 c 1.97681,-2.49738 1.9377,-11.19034 -0.0599,-13.30839 -0.996,-1.05607 -1.29055,-1.02167 -4.43653,0.51815 -3.05976,1.49763 -3.3117,1.76237 -2.50523,2.63257 0.36284,0.39151 0.79217,1.23788 0.95406,1.88082 0.38032,1.51039 0.3711,1.72841 -0.0731,1.72841 -0.2117,0 -0.44241,0.39969 -0.54434,0.94303 -0.21508,1.14648 -0.77396,1.08104 -0.89099,-0.10433 -0.0752,-0.76116 -0.14995,-0.82572 -0.79375,-0.68525 -1.57048,0.34267 -3.22432,1.02794 -3.22432,1.33601 0,1.03351 8.50721,5.34285 10.61708,5.37809 0.38237,0.006 0.81301,-0.13721 0.95699,-0.31911 z m -3.02227,-2.40138 c -1.21968,-0.45051 -1.22144,-0.45536 -1.18965,-3.28071 0.016,-1.42238 0.0348,-3.06239 0.0417,-3.64447 0.0191,-1.60663 0.25104,-1.82571 1.52775,-1.4432 1.27381,0.38164 1.74112,2.41117 1.40183,6.08813 -0.25405,2.75312 -0.30944,2.82402 -1.78162,2.28025 z m 3.30235,-5.08916 c -0.12441,-1.06567 0.17336,-1.47888 0.41528,-0.57628 0.23088,0.86139 0.20073,1.51838 -0.0696,1.51838 -0.12959,0 -0.28512,-0.42395 -0.34563,-0.9421 z m -0.8078,-2.27646 c -0.41043,-0.46069 -0.72422,-1.11939 -0.71983,-1.51105 0.008,-0.69435 0.008,-0.69435 0.79373,0.16972 0.4323,0.47524 0.786,1.15985 0.786,1.52136 0,0.80844 0.0255,0.81377 -0.8599,-0.18003 z m -23.74635,8.28706 c 0,-0.12273 -0.24206,-0.92641 -0.53791,-1.78593 -2.21529,-6.43594 -0.37582,-10.1661 5.00916,-10.15784 4.87223,0.007 7.08133,4.50838 4.96197,10.10969 -0.68589,1.81276 -0.59675,2.30275 0.3288,1.80742 2.00307,-1.07202 1.95523,-6.91861 -0.0959,-11.72257 -0.1497,-0.35058 -0.072,-0.46302 0.32007,-0.46302 0.28478,0 1.01086,-0.35719 1.61352,-0.79375 1.305,-0.94533 1.36491,-0.95553 1.36491,-0.23219 0,0.47355 0.0633,0.50902 0.40396,0.22631 1.13048,-0.93822 3.3002,-5.2154 3.3002,-6.50571 0,-0.76263 -2.13294,-0.21517 -2.91041,0.747 -5.54069,6.85698 -12.61913,7.4274 -18.13028,1.46104 -2.41776,-2.61747 -4.09443,-3.42831 -4.09493,-1.9803 -7e-4,2.02833 0.88167,4.94215 1.75207,5.78577 0.94377,0.91474 1.15514,0.69029 0.63593,-0.67532 -0.34897,-0.91788 -0.25792,-0.88096 1.64577,0.66732 0.91024,0.7403 1.92287,1.45173 2.25029,1.58095 0.71833,0.2835 0.71702,0.23489 0.0627,2.32214 -1.16896,3.72915 -0.17767,9.83216 1.59701,9.83216 0.28769,0 0.52307,-0.10043 0.52307,-0.22317 z m 3.4737,-1.43048 c 0.0188,-0.1819 0.0579,-0.62838 0.0869,-0.99219 0.029,-0.3638 0.1422,-1.04841 0.25149,-1.52135 0.23859,-1.0325 -0.0146,-1.13982 -0.38578,-0.16352 -0.26101,0.68649 -0.27257,0.68932 -0.81427,0.19909 -0.56448,-0.51085 -0.56671,-0.56352 -0.1728,-4.07047 0.13007,-1.15793 -1.16832,-0.91897 -1.43764,0.26459 -0.43523,1.91271 0.45114,6.20361 1.32934,6.43525 0.82756,0.21828 1.10846,0.18106 1.14276,-0.1514 z m 3.96793,-0.39687 c 0.83599,-2.13596 0.17686,-6.79287 -0.9931,-7.01653 -0.68825,-0.13156 -0.69029,-0.12684 -0.47326,1.09402 0.28233,1.58824 0.28259,4.69285 4.8e-4,5.79021 -0.30619,1.19104 1.00517,1.30939 1.46588,0.1323 z m 0.8124,-14.91994 c 1.78963,-0.55482 3.9168,-2.04446 3.9168,-2.74291 0,-0.2743 -0.58522,-0.36072 -2.51336,-0.37117 -1.38235,-0.007 -2.80001,-0.0856 -3.15035,-0.1735 -0.35035,-0.0879 -0.88621,-0.0265 -1.19081,0.13651 -0.41623,0.22276 -0.55381,0.21903 -0.55381,-0.015 0,-0.32622 -6.12972,-0.14738 -8.3161,0.24262 -1.04007,0.18553 -1.04007,0.18553 0.21946,1.29421 2.63567,2.32001 7.26202,2.97047 11.58817,1.62928 z m -20.02239,-3.28082 c -0.983273,-1.28815 -1.989973,-4.1077 -1.989973,-5.57347 0,-1.28218 0.29657,-1.10298 1.09196,0.65981 1.099743,2.43729 1.997953,2.96617 5.320113,3.13256 5.12524,0.25671 11.4472,-1.60406 8.93052,-2.62855 -3.22856,-1.31428 -3.96575,-2.0498 -4.16841,-4.15895 -0.11421,-1.18863 -0.19904,-1.34262 -0.73958,-1.34262 -3.05697,0 -2.74936,-6.88562 0.36948,-8.27059 2.38559,-1.05935 12.35145,-0.76437 14.10524,0.41751 2.69797,1.81816 2.84703,7.27798 0.21086,7.72336 -0.99219,0.16763 -1.04315,0.22352 -1.04409,1.14516 -0.002,1.92258 -2.25552,3.98513 -4.82929,4.41997 -1.46725,0.24789 -0.76687,0.93489 1.88156,1.84563 5.56873,1.91497 13.26747,0.71879 13.26747,-2.06141 0,-0.60139 0.99752,-1.52641 1.16772,-1.08287 0.36953,0.96298 -0.43402,3.42043 -1.73829,5.31613 -0.99689,1.44892 -0.62302,1.43848 1.00823,-0.0282 2.03557,-1.83014 2.60943,-3.21819 2.58383,-6.24973 -0.0442,-5.23508 -1.03652,-7.38695 -5.7954,-12.5677 -5.73498,-6.2434 -8.03678,-10.10159 -6.02349,-10.09639 0.62879,0.002 0.92265,0.31741 2.16376,2.32519 2.24742,3.63573 3.77733,5.50756 6.11062,7.47629 1.1875,1.00197 2.50448,2.29854 2.9266,2.88127 0.76751,1.05951 0.76751,1.05951 1.17701,0.0303 1.1751,-2.95334 1.85773,-3.89999 1.5134,-2.09872 -0.174,0.91023 0.14205,2.06119 0.50448,1.8372 0.97011,-0.59956 3.12014,-6.70702 3.12888,-8.88798 0.002,-0.53712 0.12546,-1.0517 0.27403,-1.14353 0.30241,-0.18689 1.05279,1.41246 1.05279,2.24389 0,1.29003 0.50419,0.37767 0.67554,-1.22244 0.35565,-3.321 -0.31867,-7.30187 -1.55657,-9.18928 -0.60259,-0.91875 -0.40325,-1.16577 0.4759,-0.58973 1.08998,0.71418 0.87822,-0.43976 -0.38862,-2.11768 -0.58208,-0.77096 -1.05833,-1.48975 -1.05833,-1.5973 0,-0.31797 1.79394,1.51571 2.54948,2.60595 0.88144,1.27192 1.39387,1.32328 0.65165,0.0653 -0.61669,-1.04521 -0.68384,-1.28617 -0.29071,-1.04321 0.55877,0.34534 0.22432,-0.59645 -0.70595,-1.9879 -2.0145,-3.013209 -3.25561,-4.206369 -6.14829,-5.910739 -6.91268,-4.07295 -7.80259,-12.13722 -1.74473,-15.81045 6.14072,-3.72346 11.52296,-2.70225 16.5526,3.14065 2.06864,2.40313 2.15395,2.31828 0.58018,-0.57709 -4.11292,-7.56686 -10.24422,-9.47346 -16.66873,-5.18334 -1.86661,1.24647 -2.06186,1.27051 -3.24278,0.39926 -3.35517,-2.47537 -10.31814,-2.55049 -10.31814,-0.11133 0,1.33819 -0.24562,1.30774 -1.30053,-0.1612 -1.56954,-2.18554 -4.59147,-4.07633 -8.22447,-5.14596 -1.09141,-0.32133 -2.84758,-1.05757 -3.90261,-1.63608 -2.52692,-1.38561 -2.55795,-0.43672 -0.11768,3.59873 0.8482,1.40266 1.10987,2.10443 1.10987,2.97656 0,1.25051 -0.42001,1.53593 -0.68814,0.46763 -0.56126,-2.23626 -6.61975,-4.74097 -10.108603,-4.17911 -1.13398,0.18263 -1.72102,0.17584 -1.94068,-0.0224 -0.17321,-0.15635 0.2406,0.52511 0.91958,1.51434 1.85435,2.7017 1.71152,3.09227 -0.61758,1.68873 -1.49979,-0.90379 -3.173219,-1.59293 -3.375909,-1.39024 -0.0633,0.0633 0.67449,1.02047 1.639559,2.12704 6.573363,7.53712 5.600813,13.72923 -2.88891,18.39341 -3.46352,1.90283 -7.0164,5.637289 -7.0164,7.374989 0,0.18069 -0.1893,0.69459 -0.42066,1.142 -0.36166,0.69936 -0.15377,0.58376 1.48205,-0.82414 2.16477,-1.86317 2.33316,-1.89153 1.54348,-0.25997 -1.16481,2.40663 -0.9637,3.94537 0.37774,2.8902 1.00661,-0.7918 1.33692,-0.66959 0.83157,0.30766 -1.37351,2.65606 -1.98877,6.56834 -1.49118,9.48192 0.24853,1.45521 0.24853,1.45521 0.55909,0.66146 1.00043,-2.55692 1.30665,-2.98194 1.33442,-1.85209 0.0578,2.35045 1.39456,7.02437 2.39958,8.38981 0.29021,0.39429 0.527661,0.90031 0.527661,1.12448 0,0.22417 0.11906,0.40759 0.26458,0.40759 0.34026,0 0.3365,-0.6876 -0.0101,-1.85383 -0.15111,-0.50836 -0.386451,-1.46008 -0.523001,-2.11492 -0.13654,-0.65484 -0.31843,-1.48828 -0.40419,-1.85208 -0.0858,-0.36381 0.42638,0.4101 1.138081,1.71979 2.842199,5.2303 2.736759,5.09779 3.355169,4.21648 0.60706,-0.86514 1.87586,-2.15829 4.298533,-4.38101 0.89168,-0.81809 2.18731,-2.3659 2.87917,-3.43958 2.63062,-4.0824 3.12138,-4.76338 3.62842,-5.03473 1.92963,-1.03271 -0.083,3.86249 -2.84272,6.91426 -7.863613,8.6957 -8.143233,9.21085 -8.188553,15.08603 -0.0304,3.94192 0.69114,5.76083 3.0062,7.57826 1.867543,1.46612 2.091903,1.45465 0.944683,-0.0483 z m 3.56628,-18.32752 c 0,-0.14208 0.18854,-0.33068 0.41898,-0.41911 0.25768,-0.0989 0.37864,-0.0397 0.31419,0.1536 -0.13183,0.3955 -0.73317,0.61327 -0.73317,0.26551 z m 22.93055,0.0378 c -0.30444,-0.30443 -0.19268,-0.61736 0.22049,-0.61736 0.21828,0 0.39687,0.1786 0.39687,0.39688 0,0.41316 -0.31292,0.52492 -0.61736,0.22048 z m 11.72986,-3.26319 c 0,-0.19403 0.0794,-0.2734 0.17639,-0.17639 0.097,0.097 0.097,0.25576 0,0.35278 -0.097,0.097 -0.17639,0.0176 -0.17639,-0.17639 z m -39.092513,-6.22902 c -0.7817,-0.3926 -1.91174,-1.29493 -2.58366,-2.06304 -0.65685,-0.75088 -1.57225,-1.4925 -2.03422,-1.64804 -1.132639,-0.38136 -1.193369,-0.76526 -0.187009,-1.18211 0.460419,-0.19071 1.387649,-0.85979 2.060499,-1.48684 2.0037,-1.86731 5.649673,-2.94964 7.439223,-2.20838 2.49342,1.0328 4.30138,6.27177 2.08412,6.03919 -0.66998,-0.0703 -0.8647,0.0666 -1.36583,0.95996 -1.14845,2.04739 -3.26417,2.66855 -5.413123,1.58926 z m 4.386103,-4.70777 c 0.12385,-0.64306 -0.68793,-1.49863 -1.42191,-1.49863 -1.08512,0 -1.0978,1.41765 -0.0166,1.86061 0.79771,0.32684 1.33178,0.19245 1.43856,-0.36198 z m 25.25267,4.82127 c -0.47014,-0.13583 -1.49434,-0.90201 -2.27601,-1.70263 -0.90203,-0.92389 -1.565,-1.40049 -1.8148,-1.30463 -1.25502,0.48159 -0.96613,-2.40859 0.42275,-4.22951 2.25871,-2.96132 5.64256,-2.63118 10.02531,0.97811 2.28644,1.88295 2.28644,1.88295 1.3024,2.33806 -0.54121,0.25031 -1.50708,1.07513 -2.14637,1.83294 -1.9111,2.26541 -3.2038,2.75491 -5.51328,2.08766 z m 1.91312,-5.39386 c 0,-0.89776 -0.791,-1.12613 -1.27004,-0.36669 -0.40565,0.64308 -0.0262,1.34451 0.67354,1.24515 0.46756,-0.0664 0.5965,-0.25628 0.5965,-0.87846 z m -21.66658,1.16876 c -0.0662,-0.20624 -0.26812,-1.02982 -0.4487,-1.83018 -0.18058,-0.80037 -0.37999,-1.30147 -0.44315,-1.11357 -0.0807,0.24025 -0.29079,0.16172 -0.7077,-0.26458 -0.32608,-0.33343 -1.02889,-0.93873 -1.56181,-1.34511 -0.71701,-0.54677 -0.96894,-0.93542 -0.96894,-1.49479 0,-0.47075 -0.39924,-1.28725 -1.05833,-2.16441 -1.55334,-2.067309 -1.48136,-2.148429 1.11043,-1.251479 1.14312,0.3956 1.67244,0.47595 1.7429,0.26458 0.1396,-0.4188 0.58625,-0.38284 0.58625,0.0472 0,0.19292 0.31383,0.6394 0.6974,0.992189 1.2278,1.12927 1.74496,2.7064 1.78244,5.43571 0.0317,2.30975 -0.37597,3.82966 -0.73079,2.72445 z m 11.8191,-0.97029 c -0.92118,-3.34671 0.74591,-7.986629 2.87686,-8.007059 0.19582,-0.002 1.11129,-0.24016 2.03438,-0.52951 2.03802,-0.63885 2.39258,-0.48588 1.52135,0.65636 -0.3648,0.47828 -0.60058,0.932279 -0.52396,1.008899 0.17021,0.17021 -0.85859,2.25881 -1.43583,2.91491 -0.57898,0.65808 -2.07496,1.33189 -2.44681,1.10207 -0.40393,-0.24964 -0.76835,0.35346 -0.77342,1.27997 -0.008,1.55214 -0.93734,2.71962 -1.25257,1.57436 z m 4.99877,-3.92979 c 0.23711,-0.23711 0.55798,-0.38752 0.71303,-0.33425 0.15506,0.0533 -0.0389,0.24727 -0.43111,0.43111 -0.65898,0.30892 -0.68035,0.30157 -0.28192,-0.0969 z m -5.12262,25.91522 c 1.40576,-0.16882 1.40576,-0.16882 1.23745,-1.25447 -0.33971,-2.19111 -0.56313,-2.36722 -3.50283,-2.76093 -1.98415,-0.26574 -1.96732,-0.27786 -1.53225,1.10414 1.01648,3.22887 1.03497,3.24303 3.79763,2.91126 z M 91.797797,92.450221 c 2.553291,-1.17248 2.486481,-1.79943 -0.22841,-2.14364 -1.11888,-0.14186 -2.29912,-0.39426 -2.62275,-0.56088 -1.46029,-0.75184 -3.40449,-2.45693 -4.04215,-3.54502 -0.90366,-1.54197 -1.02123,-1.50076 -0.81143,0.28437 0.52378,4.45655 4.42036,7.47336 7.70474,5.96517 z m 64.280423,-3.93417 c -1.13297,-1.74995 -1.30624,-1.90156 -2.18261,-1.90991 -1.37932,-0.0131 -2.18088,-0.59618 -4.00127,-2.91046 -4.64162,-5.90093 -9.96439,-7.25363 -9.75657,-2.47948 0.0788,1.80975 0.0788,1.80975 2.6777,1.995 3.84487,0.27407 5.10766,0.72456 7.10511,2.53473 3.14759,2.85248 7.46985,4.79692 6.15764,2.77012 z m -58.601193,-2.69458 c 2.642353,-4.93727 -8.89178,-12.6608 -18.98904,-12.71552 -1.06736,-0.006 -0.21479,2.50968 0.8744,2.57988 9.20941,0.59353 17.06562,5.32877 17.06562,10.28609 0,0.54085 0.7355,0.43537 1.04902,-0.15045 z m 36.013623,-13.05074 c -0.57972,-1.75655 -2.6888,-3.54558 -2.64821,-2.24634 0.03,0.9618 0.31034,1.4038 1.53818,2.42556 1.33037,1.10709 1.52422,1.07579 1.11003,-0.17922 z m -14.45998,-4.82771 c -0.7845,-1.02853 -2.17483,-2.1258 -2.40364,-1.897 -0.4577,0.45771 0.53374,1.99448 1.70238,2.63875 1.46939,0.81006 1.69935,0.56682 0.70126,-0.74175 z m 40.63279,-10.18478 c 0,-0.19403 0.0794,-0.2734 0.17639,-0.17639 0.097,0.097 0.097,0.25577 0,0.35278 -0.097,0.097 -0.17639,0.0176 -0.17639,-0.17639 z"
       id="path4" />
  </g>
</svg>
